<svg width="100" height="100" viewBox="0 0 100 100" fill="none" xmlns="http://www.w3.org/2000/svg">
<path d="M83.3332 66.6668V29.1668C83.3332 26.9567 82.4552 24.8371 80.8924 23.2743C79.3296 21.7115 77.21 20.8335 74.9999 20.8335H24.9999C22.7897 20.8335 20.6701 21.7115 19.1073 23.2743C17.5445 24.8371 16.6666 26.9567 16.6666 29.1668V66.6668M83.3332 66.6668H16.6666M83.3332 66.6668L88.6666 77.2918C88.9878 77.9293 89.1399 78.6386 89.1082 79.3517C89.0766 80.0648 88.8623 80.7578 88.4858 81.3643C88.1094 81.9708 87.5834 82.4704 86.9584 82.8152C86.3334 83.16 85.6303 83.3385 84.9165 83.3335H15.0832C14.3694 83.3385 13.6663 83.16 13.0413 82.8152C12.4163 82.4704 11.8904 81.9708 11.514 81.3643C11.1375 80.7578 10.9232 80.0648 10.8915 79.3517C10.8599 78.6386 11.012 77.9293 11.3332 77.2918L16.6666 66.6668" stroke="white" stroke-width="6" stroke-linecap="round" stroke-linejoin="round"/>
</svg>
