<svg width="240" height="200" viewBox="0 0 240 200" fill="none" xmlns="http://www.w3.org/2000/svg">
<path d="M199.948 65.0535L207.084 59.2734L195.561 44.9171L188.426 50.6972L199.948 65.0535Z" fill="#717171"/>
<path d="M186.799 54.0545L182.627 48.8584L175.89 54.3174L180.062 59.5135L186.799 54.0545Z" fill="#929292"/>
<path d="M202.022 37.4229C200.027 34.94 196.583 34.4065 194.324 36.2363L183.863 44.7119C181.605 46.5416 181.397 50.0366 183.387 52.5194C185.382 55.0023 188.826 55.5358 191.084 53.706L201.545 45.2304C203.803 43.4007 204.012 39.9057 202.022 37.4229Z" fill="black"/>
<path d="M199.683 28.9359L194.061 33.4892C192.653 34.63 192.432 36.7015 193.568 38.1162L199.577 45.603C200.712 47.0177 202.774 47.2398 204.182 46.0991L209.803 41.5457C211.212 40.405 211.433 38.3335 210.297 36.9187L204.288 29.432C203.153 28.0173 201.091 27.7952 199.683 28.9359Z" fill="#42923C"/>
<path d="M181.69 57.0515L178.623 53.2275C178.043 52.5046 177.268 52.1705 176.891 52.4746L175.383 53.6961C175.005 54.0003 175.169 54.8378 175.75 55.5558L178.817 59.3798C179.397 60.1027 180.172 60.4367 180.549 60.1326L182.057 58.9111C182.435 58.607 182.271 57.7694 181.69 57.0515Z" fill="#42923C"/>
<path d="M181.392 56.6823L178.916 53.5962C178.449 53.0129 177.764 52.7885 177.382 53.0926L175.874 54.3141C175.496 54.6183 175.571 55.3412 176.037 55.9245L178.514 59.0106C178.98 59.5939 179.665 59.8183 180.047 59.5142L181.556 58.2927C181.933 57.9886 181.859 57.2656 181.392 56.6823Z" fill="white"/>
<path d="M181.01 56.2037L179.303 54.0748C178.98 53.671 178.41 53.5962 178.032 53.9003L176.524 55.1218C176.147 55.4259 176.102 56.0042 176.425 56.4031L178.132 58.532C178.454 58.9358 179.025 59.0106 179.402 58.7065L180.911 57.485C181.288 57.1809 181.333 56.6025 181.01 56.2037Z" fill="#42923C"/>
<path d="M200.48 71.1432L196.309 65.9463L189.571 71.4041L193.742 76.6009L200.48 71.1432Z" fill="#929292"/>
<path d="M215.735 54.499C213.74 52.0162 210.295 51.4827 208.037 53.3125L197.576 61.7881C195.318 63.6178 195.105 67.1128 197.1 69.5956C199.095 72.0785 202.539 72.6119 204.797 70.7822L215.258 62.3066C217.516 60.4768 217.725 56.9819 215.735 54.499Z" fill="black"/>
<path d="M213.373 45.9872L207.753 50.5415C206.345 51.6825 206.124 53.7541 207.26 55.1686L213.27 62.6543C214.405 64.0688 216.468 64.2906 217.876 63.1496L223.496 58.5953C224.904 57.4543 225.125 55.3827 223.989 53.9682L217.979 46.4825C216.843 45.068 214.781 44.8462 213.373 45.9872Z" fill="#42923C"/>
<path d="M195.397 74.1276L192.33 70.3036C191.75 69.5807 190.975 69.2467 190.598 69.5508L189.09 70.7723C188.712 71.0764 188.876 71.914 189.457 72.6319L192.524 76.4559C193.104 77.1789 193.879 77.5129 194.256 77.2088L195.764 75.9873C196.142 75.6832 195.978 74.8456 195.397 74.1276Z" fill="#42923C"/>
<path d="M195.105 73.7585L192.629 70.6724C192.162 70.089 191.477 69.8647 191.095 70.1688L189.586 71.3903C189.209 71.6944 189.284 72.4173 189.75 73.0007L192.227 76.0868C192.693 76.6701 193.378 76.8945 193.76 76.5903L195.269 75.3689C195.646 75.0647 195.572 74.3418 195.105 73.7585Z" fill="white"/>
<path d="M194.717 73.2847L193.01 71.1558C192.687 70.752 192.117 70.6772 191.739 70.9814L190.231 72.2028C189.854 72.507 189.809 73.0853 190.132 73.4842L191.839 75.613C192.161 76.0169 192.732 76.0917 193.109 75.7875L194.618 74.566C194.995 74.2619 195.04 73.6836 194.717 73.2847Z" fill="#42923C"/>
<path d="M198.713 56.987C197.79 57.7348 196.445 57.5902 195.701 56.6629C194.956 55.7356 195.1 54.3845 196.023 53.6366C196.946 52.8888 198.291 53.0334 199.036 53.9607C199.78 54.888 199.636 56.2391 198.713 56.987Z" fill="#261826"/>
<path d="M199.104 56.6725C198.181 57.4204 196.836 57.2758 196.091 56.3485C195.347 55.4211 195.491 54.07 196.414 53.3222C197.337 52.5743 198.682 52.7189 199.426 53.6462C200.171 54.5736 200.027 55.9247 199.104 56.6725Z" fill="#42923C"/>
<path d="M198.683 56.1492C198.053 56.6627 197.125 56.563 196.614 55.9248C196.103 55.2916 196.202 54.3593 196.837 53.8458C197.467 53.3323 198.395 53.432 198.907 54.0702C199.418 54.7033 199.319 55.6357 198.683 56.1492Z" fill="white"/>
<path d="M65.5335 177.53C65.5335 181.912 62.3226 185.462 58.3673 185.462C54.4121 185.462 51.2012 181.912 51.2012 177.53C51.2012 173.147 54.4121 169.598 58.3673 169.598C62.3226 169.598 65.5335 173.147 65.5335 177.53Z" fill="black"/>
<path d="M63.5037 177.455C63.5037 180.267 61.9057 182.55 59.9306 182.55C57.9554 182.55 56.3574 180.272 56.3574 177.455C56.3574 174.638 57.9554 172.359 59.9306 172.359C61.9057 172.359 63.5037 174.638 63.5037 177.455Z" fill="white"/>
<path d="M32.287 172.783C31.4383 176.687 27.89 179.255 24.3665 178.522C20.838 177.789 18.6693 174.03 19.5179 170.126C20.3665 166.222 23.9149 163.655 27.4434 164.388C30.9719 165.12 33.1406 168.88 32.2919 172.783H32.287Z" fill="black"/>
<path d="M30.1428 172.27C29.5969 174.778 27.8103 176.528 26.1478 176.179C24.4853 175.835 23.582 173.521 24.1279 171.018C24.6738 168.511 26.4604 166.761 28.1229 167.105C29.7854 167.449 30.6887 169.762 30.1428 172.265V172.27Z" fill="white"/>
<path d="M75.3285 12.4345C71.7801 9.94167 58.2766 3.38553 55.1203 9.60265C54.4404 10.9388 54.4106 12.6539 54.1724 14.1097C53.8548 16.0641 53.5421 18.0184 53.2344 19.9728C52.5843 24.086 51.9441 28.2041 51.3188 32.3223C49.1253 46.691 47.0459 61.0796 44.9417 75.4632C44.4802 78.6142 44.0038 81.7651 43.572 84.921C43.2197 87.4936 47.3635 87.4687 47.7109 84.921C50.6637 63.3032 53.5322 41.6754 56.8126 20.1024C57.1103 18.158 57.4081 16.2086 57.7108 14.2642C57.9441 12.7785 57.6959 10.9637 59.4081 10.5848C61.2641 10.171 63.6859 11.0435 65.4378 11.577C68.068 12.3797 71.5568 15.3511 74.2168 16.0391C75.3582 16.3333 76.9066 13.6061 76.0233 12.9829L75.3334 12.4295L75.3285 12.4345Z" fill="black"/>
<path d="M70.2175 13.6458C71.3739 15.5104 73.7808 16.1985 75.7162 17.1158C76.7237 17.5944 78.3911 18.1429 79.1802 18.9705C80.1182 19.9576 79.7212 21.7525 79.5872 23.0587C78.7832 30.7616 77.9991 38.4744 77.1356 46.1722C76.1281 55.1414 75.0165 64.0957 73.9743 73.0549C73.4929 77.208 73.0215 81.366 72.5996 85.529C72.3962 87.5133 72.2076 89.4976 72.0339 91.4869C71.8999 93.0175 72.1629 95.2262 71.0711 96.4626C70.1778 97.4747 70.4806 99.0851 71.885 99.4789C75.3887 100.456 76.2869 96.8116 76.5152 94.2191C76.8031 90.9235 77.081 87.633 77.4184 84.3474C78.2472 76.2856 79.2249 68.2388 80.1777 60.1869C81.1008 52.4243 82.0288 44.6566 82.7881 36.879C83.1157 33.5386 83.2794 30.1733 83.7261 26.8478C84.1132 23.9312 84.9965 20.3316 83.6963 17.5197C82.6095 15.1764 79.6368 14.0895 77.3936 13.0924C75.4681 12.2349 73.2001 11.0184 71.0612 11.5967C70.1878 11.831 69.7362 12.868 70.2126 13.6358L70.2175 13.6458Z" fill="black"/>
<path d="M91.9145 86.013C94.0237 93.1873 85.86 170.4 78.3961 175.032C70.9321 179.664 21.429 169.817 15.3497 165.27C9.27529 160.723 25.2205 77.3379 33.0815 75.3237C40.9424 73.3045 90.6143 81.6106 91.9095 86.013H91.9145Z" fill="#B06574"/>
<path d="M91.9136 86.0132C91.4521 84.4427 84.812 82.3687 76.1074 80.4492C76.1074 80.4492 76.1074 80.4542 76.1123 80.4592C78.2215 87.6335 70.0578 164.846 62.5939 169.478C57.4227 172.689 32.0831 168.95 14.9766 164.836C15.0907 165.016 15.2098 165.171 15.3488 165.27C21.4231 169.817 70.9263 179.664 78.3952 175.032C85.8641 170.4 94.0228 93.1876 91.9136 86.0132Z" fill="#954F5D"/>
<path d="M83.3088 115.927L82.3262 115.812C82.351 115.588 84.9217 93.5013 84.4006 82.6924L85.3882 82.6426C85.9142 93.5362 83.3336 115.707 83.3088 115.927Z" fill="black"/>
<path d="M33.9604 86.8558C42.9379 88.0424 51.8758 89.6428 60.6697 91.8015C63.1213 92.4048 65.5481 93.0978 67.9947 93.731C68.4761 93.8556 68.6746 93.1277 68.1982 92.9832C63.836 91.647 59.3447 90.6449 54.8832 89.7026C50.4713 88.7703 46.0198 88.0174 41.5583 87.3992C39.0323 87.0502 36.4963 86.8059 33.9604 86.5865C33.7817 86.5716 33.7916 86.8358 33.9604 86.8608V86.8558Z" fill="black"/>
<path d="M68.0342 93.5709C67.8506 94.3038 67.7265 95.0417 67.6173 95.7895C67.528 96.4078 67.4287 97.1606 68.0441 97.5445C68.2823 97.6941 68.595 97.7389 68.853 97.6093C69.121 97.4747 69.26 97.1955 69.3195 96.9113C69.4486 96.3031 69.4089 95.64 69.255 95.0367C69.1657 94.6927 69.0267 94.3537 68.858 94.0396C68.7786 93.89 68.6893 93.7504 68.595 93.6108C68.4759 93.4463 68.3766 93.3615 68.1732 93.3516C68.1186 93.3516 68.0441 93.3964 68.0342 93.4563C68.0044 93.6308 68.0243 93.7355 68.1235 93.885C68.2178 94.0246 68.3022 94.1692 68.3766 94.3188C68.5156 94.598 68.6198 94.8871 68.6942 95.1913C68.7736 95.5104 68.8133 95.8344 68.8133 96.1635C68.8133 96.4177 68.8183 96.7667 68.6794 96.9911C68.5602 97.1855 68.322 97.0808 68.2079 96.9363C68.0044 96.672 68.0987 96.2333 68.1384 95.9341C68.2327 95.1564 68.3171 94.3886 68.332 93.6058C68.332 93.4313 68.0689 93.3915 68.0292 93.5659L68.0342 93.5709Z" fill="black"/>
<path d="M60.762 141.598C60.7124 141.598 60.6628 141.588 60.6132 141.573C56.8167 140.122 52.5388 138.228 52.4991 138.208C52.3899 138.158 52.3056 138.063 52.2708 137.943C52.2361 137.824 52.2559 137.699 52.3204 137.594L59.3824 126.676C59.4618 126.556 59.5958 126.486 59.7298 126.486C59.7745 126.486 59.8241 126.496 59.8687 126.511C59.9233 126.531 65.1838 128.396 67.829 129.084C67.953 129.119 68.0572 129.208 68.1069 129.328C68.1565 129.448 68.1466 129.587 68.0821 129.697C68.0374 129.777 63.4965 137.659 61.1144 141.398C61.035 141.523 60.901 141.593 60.762 141.593V141.598Z" fill="#DD9FB1"/>
<path d="M59.7308 126.905C59.7308 126.905 65.0309 128.79 67.7257 129.488C67.7257 129.488 63.1699 137.395 60.768 141.174C56.9367 139.713 52.6738 137.819 52.6738 137.819L59.7357 126.9M59.7357 126.063C59.4578 126.063 59.1948 126.202 59.036 126.442L51.974 137.36C51.84 137.565 51.8053 137.819 51.8748 138.053C51.9442 138.287 52.113 138.482 52.3363 138.577C52.381 138.597 56.6638 140.496 60.4702 141.947C60.5645 141.982 60.6687 142.002 60.763 142.002C61.0409 142.002 61.3089 141.862 61.4627 141.618C63.8498 137.869 68.3957 129.981 68.4403 129.902C68.5694 129.677 68.5892 129.403 68.49 129.159C68.3907 128.914 68.1823 128.74 67.9341 128.67C65.3089 127.987 60.0633 126.122 60.0087 126.107C59.9193 126.078 59.825 126.058 59.7308 126.058L59.7357 126.063Z" fill="white"/>
<path d="M41.3543 126.047C41.3146 126.047 41.2749 126.042 41.2352 126.033L28.0592 122.159C27.9153 122.119 27.8061 122.004 27.7714 121.86C27.7366 121.715 27.7813 121.56 27.8855 121.461L36.6199 113.02C36.6993 112.945 36.8035 112.905 36.9077 112.905C36.9375 112.905 36.9723 112.905 37.002 112.915C37.141 112.945 37.2502 113.045 37.2998 113.179L41.7414 125.494C41.796 125.644 41.7613 125.808 41.6521 125.923C41.5727 126.008 41.4635 126.052 41.3494 126.052L41.3543 126.047Z" fill="#61CE70"/>
<path d="M36.9122 113.314L41.3538 125.629L28.1778 121.755L36.9122 113.314ZM36.9122 112.477C36.6988 112.477 36.4904 112.556 36.3365 112.711L27.6021 121.152C27.3887 121.356 27.2994 121.665 27.3689 121.954C27.4384 122.243 27.6567 122.473 27.9446 122.558L41.1206 126.431C41.2 126.456 41.2744 126.466 41.3538 126.466C41.5821 126.466 41.8005 126.372 41.9593 126.202C42.1727 125.973 42.2422 125.644 42.133 125.345L37.6913 113.03C37.597 112.766 37.3737 112.566 37.0958 112.501C37.0313 112.487 36.9717 112.482 36.9072 112.482L36.9122 112.477Z" fill="white"/>
<path d="M30.1296 141.772C29.951 144.893 32.6011 147.53 35.6631 148.109C39.0973 148.757 42.4967 146.1 42.854 142.714C43.2064 139.329 40.2883 135.964 36.7995 135.779C33.6085 135.61 30.6259 138.247 30.1743 141.298C30.1495 141.458 30.1346 141.612 30.1247 141.772H30.1296Z" fill="white"/>
<path d="M36.7044 148.603C36.3322 148.603 35.96 148.568 35.5928 148.498C32.5605 147.925 29.5432 145.242 29.7417 141.752C29.7516 141.583 29.7665 141.418 29.7913 141.249C30.2826 137.903 33.5134 135.201 36.8185 135.396C38.6151 135.49 40.3669 136.388 41.6175 137.864C42.8234 139.284 43.414 141.069 43.2403 142.759C43.0567 144.514 42.0939 146.16 40.6051 147.276C39.4488 148.144 38.0692 148.603 36.7044 148.603ZM30.5209 141.797C30.3472 144.858 33.037 147.217 35.7416 147.73C37.2404 148.014 38.8483 147.62 40.1436 146.648C41.4637 145.661 42.3123 144.215 42.4711 142.68C42.6249 141.199 42.0989 139.628 41.0319 138.372C39.9202 137.061 38.3719 136.263 36.7838 136.178C33.8955 136.014 30.9923 138.452 30.5655 141.363C30.5457 141.508 30.5308 141.658 30.5209 141.802V141.797Z" fill="white"/>
<path d="M212.311 85.1509C210.525 84.2983 208.371 85.0711 207.522 86.8659L204.555 93.1429C203.706 94.9377 204.475 97.1015 206.262 97.954C208.048 98.8066 210.202 98.0338 211.051 96.239L214.018 89.962C214.867 88.1672 214.098 86.0034 212.311 85.1509Z" fill="#42923C"/>
<path d="M212.375 90.2762L208.32 88.3418C207.893 88.1374 207.447 88.0277 207.005 87.9629L204.558 93.143C203.71 94.9378 204.479 97.1016 206.266 97.9541C208.052 98.8067 210.206 98.0339 211.055 96.2391L213.501 91.059C213.169 90.7549 212.802 90.4757 212.375 90.2713V90.2762Z" fill="#42923C"/>
<path d="M200.819 93.2304L201.589 91.5999C202.693 89.2623 205.483 88.2637 207.81 89.3732L211.868 91.3078C214.195 92.4173 215.189 95.2202 214.084 97.5578L213.314 99.1883C212.21 101.526 209.42 102.525 207.093 101.415L203.035 99.4804C200.708 98.3709 199.714 95.568 200.819 93.2304Z" fill="#1C121C"/>
<path d="M216.095 144.173C227.958 132.255 227.958 112.933 216.095 101.015C204.232 89.0971 184.999 89.0971 173.136 101.015C161.273 112.933 161.273 132.255 173.136 144.173C184.999 156.09 204.232 156.09 216.095 144.173Z" fill="#CFCFCF"/>
<path d="M215.162 143.235C226.509 131.835 226.509 113.352 215.162 101.953C203.815 90.5528 185.417 90.5528 174.07 101.953C162.722 113.352 162.722 131.835 174.07 143.235C185.417 154.635 203.815 154.635 215.162 143.235Z" fill="black"/>
<path d="M215.614 132.806C221.232 121.157 216.386 107.138 204.791 101.494C193.195 95.8505 179.241 100.719 173.623 112.368C168.005 124.017 172.851 138.035 184.447 143.679C196.042 149.323 209.996 144.455 215.614 132.806Z" fill="white"/>
<path d="M202.059 142.751C213.134 138.62 218.778 126.252 214.666 115.127C210.554 104.001 198.243 98.3309 187.169 102.462C176.095 106.593 170.451 118.96 174.562 130.086C178.674 141.211 190.985 146.881 202.059 142.751Z" fill="#CFCFCF"/>
<path d="M196.967 142.268C207.782 140.963 215.495 131.098 214.196 120.233C212.897 109.369 203.077 101.62 192.263 102.925C181.448 104.23 173.735 114.095 175.034 124.96C176.333 135.824 186.153 143.573 196.967 142.268Z" fill="white"/>
<path d="M192.469 120.663L207.813 112.502L196.285 125.544L192.469 120.663Z" fill="#DD9FB1"/>
<path d="M196.285 125.544L180.936 133.701L192.469 120.663L196.285 125.544Z" fill="#B06574"/>
<path d="M203.521 107.411C203.149 108.194 202.216 108.528 201.437 108.159C200.658 107.785 200.325 106.848 200.692 106.065C201.065 105.282 201.998 104.948 202.777 105.317C203.556 105.691 203.888 106.628 203.521 107.411Z" fill="#1C121C"/>
<path d="M188.449 139.305C188.077 140.087 187.144 140.421 186.365 140.053C185.585 139.679 185.253 138.741 185.62 137.959C185.992 137.176 186.925 136.842 187.705 137.211C188.484 137.585 188.816 138.522 188.449 139.305Z" fill="#1C121C"/>
<path d="M209.775 131.677C208.996 131.303 208.663 130.365 209.03 129.583C209.403 128.8 210.336 128.466 211.115 128.835C211.894 129.209 212.226 130.146 211.859 130.929C211.487 131.711 210.554 132.046 209.775 131.677Z" fill="#1C121C"/>
<path d="M178.029 116.535C177.25 116.161 176.917 115.224 177.284 114.441C177.651 113.658 178.589 113.324 179.369 113.693C180.148 114.067 180.48 115.004 180.113 115.787C179.741 116.57 178.808 116.904 178.029 116.535Z" fill="#1C121C"/>
<path d="M101.17 84.1479C101.17 84.1479 113.889 107.785 116.932 111.21C119.974 114.635 129.701 109.6 131.577 108.428C133.452 107.256 127.919 94.1592 127.919 94.1592L119.676 82.029L112.177 72.0527L106.659 76.4501L101.17 84.1529V84.1479Z" fill="#EBEBEB"/>
<path d="M101.988 75.7519C97.2835 67.1317 98.157 64.7635 98.157 64.7635C99.0999 63.557 101.502 63.5321 103.869 63.8611L97.1743 57.29C97.1743 57.29 91.8742 64.4195 92.7476 69.5797C93.1099 71.6986 96.5987 78.2996 100.752 85.5787L105.879 82.9014C104.455 80.2889 103.12 77.821 101.993 75.7569L101.988 75.7519Z" fill="#61CE70"/>
<path d="M98.1578 64.7634C98.1578 64.7634 97.2843 67.1316 101.989 75.7518C103.116 77.8159 104.451 80.2888 105.875 82.8963L110.485 80.4882L116.594 75.1635L109.597 65.2072C109.597 65.2072 106.763 64.2649 103.865 63.8561C101.503 63.527 99.0957 63.5569 98.1528 64.7585L98.1578 64.7634Z" fill="#61CE70"/>
<path d="M157.804 44.6016C157.804 44.6016 175.427 64.8184 177.561 68.8718C179.695 72.9301 171.605 80.3338 169.859 81.6899C168.112 83.046 157.819 73.2741 157.819 73.2741L149.372 61.2886L142.678 50.7489L148.702 47.0844L157.804 44.6016Z" fill="#EBEBEB"/>
<path d="M149.685 42.4483C143.283 35.0147 140.767 35.0097 140.767 35.0097C139.313 35.4784 138.449 37.7319 137.933 40.0702L134.137 31.4749C134.137 31.4749 142.638 28.9671 147.144 31.5896C148.995 32.6665 153.938 38.2554 159.283 44.7019L154.995 48.5957C153.055 46.3421 151.213 44.2232 149.68 42.4434L149.685 42.4483Z" fill="#61CE70"/>
<path d="M140.771 35.0098C140.771 35.0098 143.287 35.0098 149.689 42.4484C151.223 44.2282 153.064 46.3472 155.004 48.6007L151.148 52.1006L144.052 55.9944L137.203 45.9383C137.203 45.9383 137.307 42.9419 137.943 40.0752C138.459 37.7369 139.322 35.4784 140.776 35.0148L140.771 35.0098Z" fill="#61CE70"/>
<path d="M136.826 30.7737L95.1777 59.8535L125.274 103.356L166.922 74.2762L136.826 30.7737Z" fill="#CFCFCF"/>
<path d="M154.503 56.333C141.834 74.5805 122.653 81.9643 112.385 84.7313L125.273 103.358L166.92 74.2764L154.508 56.333H154.503Z" fill="#CFCFCF"/>
<path d="M149.702 67.3587L124.811 84.7383C122.751 86.1762 122.242 89.0189 123.674 91.0878L128.925 98.678C130.356 100.747 133.186 101.258 135.245 99.8205L160.136 82.4408C162.195 81.003 162.704 78.1602 161.273 76.0913L156.022 68.5011C154.591 66.4323 151.761 65.9208 149.702 67.3587Z" fill="#EBEBEB"/>
<path d="M123.675 91.0829L124.32 92.0202L156.667 69.4302L156.022 68.4929C156.022 68.4929 156.002 68.473 155.992 68.458L123.65 91.0431C123.65 91.0431 123.665 91.068 123.67 91.0829H123.675Z" fill="#61CE70"/>
<path d="M161.279 76.0859L157.746 70.9756C145.175 85.1299 130.853 91.4317 125.334 93.4709L128.932 98.6709C130.361 100.74 133.195 101.253 135.254 99.8126L160.147 82.4326C162.207 80.9968 162.718 78.1499 161.284 76.0809L161.279 76.0859Z" fill="#989898"/>
<path d="M112.078 23.0287L96.5747 33.8526C94.2224 35.4929 93.6417 38.7385 95.2745 41.1018L101.711 50.405C103.344 52.7682 106.575 53.3515 108.927 51.7112L124.43 40.8874C126.783 39.2471 127.363 36.0014 125.731 33.6382L119.294 24.335C117.661 21.9718 114.431 21.3885 112.078 23.0287ZM120.872 35.9665C121.914 37.4672 121.542 39.5363 120.043 40.5783L110.178 47.4684C108.679 48.5154 106.624 48.1415 105.587 46.6408L101.488 40.7179C100.446 39.2122 100.818 37.1481 102.312 36.1011L112.177 29.211C113.676 28.164 115.731 28.5379 116.768 30.0436L120.867 35.9665H120.872Z" fill="#61CE70"/>
<path d="M165.208 73.6677L125.296 101.535C122.03 103.816 121.223 108.324 123.492 111.604L126.379 115.776C128.648 119.057 133.136 119.868 136.401 117.588L176.313 89.7202C179.579 87.44 180.386 82.932 178.116 79.6512L175.23 75.4794C172.961 72.1987 168.473 71.3875 165.208 73.6677Z" fill="#61CE70"/>
<path d="M131.409 95.339L133.32 94.0045C134.261 93.3473 135.56 93.582 136.214 94.5277L146.747 109.753C147.402 110.699 147.168 112.003 146.227 112.661L144.315 113.995C143.374 114.653 142.075 114.418 141.421 113.472L130.888 98.2466C130.234 97.3009 130.467 95.9963 131.409 95.339Z" fill="#CFCFCF"/>
<path d="M137.586 107.915L141.427 113.469C142.082 114.416 143.377 114.651 144.32 113.992L146.231 112.656C147.174 111.998 147.407 110.697 146.752 109.75L142.901 104.181C141.03 106.324 138.792 107.446 137.586 107.915Z" fill="#0D585C"/>
<path d="M138.694 101.204L136.267 102.899C135.066 103.736 134.768 105.396 135.602 106.608L137.284 109.041C138.118 110.248 139.77 110.547 140.976 109.709L143.403 108.014C144.604 107.176 144.902 105.516 144.068 104.305L142.386 101.872C141.552 100.665 139.899 100.366 138.694 101.204ZM142.852 104.634C143.448 105.496 143.234 106.678 142.381 107.276L140.649 108.483C139.79 109.081 138.614 108.867 138.019 108.009L136.818 106.274C136.222 105.411 136.435 104.23 137.289 103.632L139.021 102.425C139.88 101.827 141.056 102.041 141.651 102.899L142.852 104.634Z" fill="#EBEBEB"/>
<path d="M138.9 101.991L136.92 103.372C135.938 104.055 135.694 105.411 136.379 106.399L137.754 108.383C138.434 109.37 139.784 109.609 140.766 108.926L142.747 107.545C143.729 106.862 143.972 105.506 143.287 104.519L141.913 102.535C141.233 101.548 139.883 101.308 138.9 101.991ZM142.851 104.639C143.446 105.501 143.233 106.683 142.379 107.281L140.647 108.488C139.789 109.086 138.613 108.871 138.017 108.014L136.816 106.279C136.221 105.416 136.434 104.235 137.288 103.637L139.02 102.43C139.878 101.832 141.054 102.046 141.65 102.904L142.851 104.639Z" fill="#FFBD6E"/>
<path d="M113.593 58.2077L111.682 59.5422C110.739 60.2006 110.506 61.5024 111.161 62.4497L121.695 77.6752C122.35 78.6226 123.646 78.8568 124.589 78.1984L126.5 76.8639C127.443 76.2055 127.676 74.9037 127.021 73.9563L116.488 58.7308C115.832 57.7835 114.536 57.5492 113.593 58.2077Z" fill="#61CE70"/>
<path d="M117.844 72.118L121.685 77.6721C122.34 78.6193 123.635 78.8537 124.578 78.1956L126.489 76.8594C127.432 76.2013 127.665 74.9 127.01 73.9528L123.159 68.3838C121.288 70.5276 119.05 71.6494 117.844 72.118Z" fill="black"/>
<path d="M118.955 65.4116L116.528 67.1067C115.328 67.9443 115.03 69.6045 115.863 70.816L117.546 73.249C118.38 74.4555 120.032 74.7547 121.238 73.9171L123.665 72.222C124.866 71.3844 125.164 69.7242 124.33 68.5126L122.648 66.0796C121.814 64.8731 120.161 64.574 118.955 65.4116ZM123.114 68.8417C123.71 69.7042 123.496 70.8858 122.643 71.4841L120.911 72.6906C120.052 73.2889 118.876 73.0745 118.28 72.217L117.079 70.482C116.484 69.6195 116.697 68.4379 117.551 67.8396L119.283 66.633C120.141 66.0348 121.318 66.2492 121.913 67.1067L123.114 68.8417Z" fill="#EBEBEB"/>
<path d="M119.164 66.1944L117.184 67.5754C116.201 68.2584 115.958 69.6145 116.643 70.6017L118.018 72.586C118.698 73.5732 120.047 73.8125 121.03 73.1294L123.01 71.7484C123.993 71.0654 124.236 69.7093 123.551 68.7221L122.176 66.7378C121.497 65.7507 120.147 65.5114 119.164 66.1944ZM123.114 68.8418C123.71 69.7043 123.497 70.8859 122.643 71.4842L120.911 72.6907C120.052 73.289 118.876 73.0746 118.281 72.2171L117.08 70.4821C116.484 69.6195 116.698 68.4379 117.551 67.8397L119.283 66.6331C120.142 66.0348 121.318 66.2492 121.913 67.1068L123.114 68.8418Z" fill="#FFBD6E"/>
<path d="M130.99 46.0534L129.079 47.3879C128.136 48.0463 127.902 49.3481 128.558 50.2955L139.091 65.5209C139.747 66.4683 141.042 66.7025 141.985 66.0441L143.897 64.7096C144.84 64.0512 145.073 62.7494 144.417 61.802L133.884 46.5765C133.229 45.6292 131.933 45.3949 130.99 46.0534Z" fill="#61CE70"/>
<path d="M135.248 59.9677L139.089 65.5217C139.744 66.469 141.04 66.7033 141.982 66.0452L143.893 64.709C144.836 64.0509 145.069 62.7497 144.414 61.8024L140.563 56.2334C138.692 58.3772 136.454 59.499 135.248 59.9677Z" fill="#61CE70"/>
<path d="M136.36 53.2621L133.933 54.9573C132.732 55.7949 132.434 57.4551 133.268 58.6666L134.95 61.0996C135.784 62.3061 137.436 62.6053 138.642 61.7677L141.069 60.0726C142.27 59.235 142.568 57.5747 141.734 56.3632L140.052 53.9302C139.218 52.7237 137.565 52.4246 136.36 53.2621ZM140.518 56.6923C141.114 57.5548 140.9 58.7364 140.047 59.3347L138.315 60.5412C137.456 61.1395 136.28 60.9251 135.685 60.0676L134.484 58.3326C133.888 57.47 134.102 56.2884 134.955 55.6902L136.687 54.4836C137.546 53.8854 138.722 54.0997 139.317 54.9573L140.518 56.6923Z" fill="#EBEBEB"/>
<path d="M136.568 54.045L134.588 55.426C133.606 56.109 133.362 57.4651 134.047 58.4523L135.422 60.4366C136.102 61.4237 137.452 61.6631 138.434 60.98L140.414 59.599C141.397 58.916 141.64 57.5599 140.955 56.5727L139.581 54.5884C138.901 53.6012 137.551 53.3619 136.568 54.045ZM140.519 56.6924C141.114 57.5549 140.901 58.7365 140.047 59.3348L138.315 60.5413C137.457 61.1396 136.281 60.9252 135.685 60.0676L134.484 58.3326C133.888 57.4701 134.102 56.2885 134.955 55.6902L136.687 54.4837C137.546 53.8854 138.722 54.0998 139.318 54.9573L140.519 56.6924Z" fill="#FFBD6E"/>
<path d="M156.871 77.5651L154.959 78.8996C154.016 79.558 153.783 80.8598 154.439 81.8072L164.972 97.0326C165.627 97.98 166.923 98.2143 167.866 97.5558L169.777 96.2213C170.72 95.5629 170.954 94.2611 170.298 93.3137L159.765 78.0883C159.109 77.1409 157.814 76.9067 156.871 77.5651Z" fill="#CFCFCF"/>
<path d="M161.129 91.4716L164.97 97.0256C165.625 97.9729 166.92 98.2072 167.863 97.5491L169.774 96.2129C170.717 95.5548 170.95 94.2536 170.295 93.3063L166.444 87.7373C164.573 89.8811 162.335 91.0029 161.129 91.4716Z" fill="#CFCFCF"/>
<path d="M162.237 84.7661L159.81 86.4612C158.609 87.2988 158.311 88.959 159.145 90.1705L160.827 92.6035C161.661 93.81 163.313 94.1092 164.519 93.2716L166.946 91.5765C168.147 90.7389 168.445 89.0786 167.611 87.8671L165.929 85.4341C165.095 84.2276 163.442 83.9285 162.237 84.7661ZM166.395 88.1962C166.991 89.0587 166.777 90.2403 165.924 90.8386L164.192 92.0451C163.333 92.6434 162.157 92.429 161.562 91.5715L160.361 89.8365C159.765 88.9739 159.978 87.7924 160.832 87.1941L162.564 85.9875C163.423 85.3893 164.599 85.6036 165.194 86.4612L166.395 88.1962Z" fill="#EBEBEB"/>
<path d="M162.449 85.5489L160.469 86.9299C159.486 87.6129 159.243 88.969 159.928 89.9562L161.303 91.9405C161.983 92.9276 163.333 93.167 164.315 92.4839L166.295 91.1029C167.278 90.4199 167.521 89.0638 166.836 88.0766L165.462 86.0923C164.782 85.1052 163.432 84.8658 162.449 85.5489ZM166.4 88.1963C166.995 89.0588 166.782 90.2404 165.928 90.8387L164.196 92.0452C163.338 92.6435 162.161 92.4291 161.566 91.5716L160.365 89.8365C159.769 88.974 159.983 87.7924 160.836 87.1941L162.568 85.9876C163.427 85.3893 164.603 85.6037 165.199 86.4613L166.4 88.1963Z" fill="#FFBD6E"/>
<path d="M125.267 25.6154L94.3934 47.172C90.8171 49.6691 89.9329 54.6059 92.4185 58.1987L96.2902 63.7951C98.7758 67.3879 103.69 68.2762 107.266 65.7791L138.139 44.2225C141.716 41.7255 142.6 36.7887 140.114 33.1959L136.242 27.5994C133.757 24.0066 128.843 23.1184 125.267 25.6154Z" fill="#CFCFCF"/>
<path d="M134.773 39.3623L103.899 60.9203C100.321 63.4181 95.4082 62.5306 92.9219 58.936L96.2866 63.802C98.7729 67.3966 103.686 68.2841 107.264 65.7863L138.137 44.2283C141.715 41.7304 142.599 36.7946 140.112 33.2L136.748 28.334C139.234 31.9286 138.351 36.8644 134.773 39.3623Z" fill="#989898"/>
<path d="M34.1836 188.737L60.8284 130.545L99.1357 111.195L80.2625 171.248L34.1836 188.737Z" fill="#42923C"/>
<path d="M99.1349 111.195L125.785 130.545V193L80.2617 171.248L99.1349 111.195Z" fill="#397B34"/>
<path d="M217.387 188.737L190.737 130.545L152.43 111.195L171.308 171.248L217.387 188.737Z" fill="#66BD60"/>
<path d="M152.43 111.195L125.785 130.545V193L171.308 171.248L152.43 111.195Z" fill="#42923C"/>
<path d="M44.6602 178.432L63.8163 135.136L96.6943 118.963L83.017 162.483L44.6602 178.432Z" fill="#EADADA"/>
<path d="M96.6948 118.963L125.786 136.198V184.494L83.0176 162.483L96.6948 118.963Z" fill="#C9A7A7"/>
<path d="M206.632 177.175L187.059 135.136L154.871 118.963L168.901 163.595L206.632 177.175Z" fill="white"/>
<path d="M154.872 118.963L125.785 136.198V184.494L168.901 163.595L154.872 118.963Z" fill="#DEC0C0"/>
<path d="M94.0093 128.61C93.2748 128.505 92.585 128.042 91.8654 127.867C90.5552 127.553 89.0217 127.708 87.7414 128.077C86.6099 128.406 85.3493 128.5 84.3072 129.004C83.7464 129.278 83.3345 129.642 82.7538 129.872C82.3518 130.031 81.9201 130.131 81.5131 130.285C80.2179 130.769 78.4065 131.397 77.4636 132.459C76.8929 133.102 76.1931 133.785 75.6621 134.468C75.1559 135.116 74.9723 135.879 74.3519 136.448C72.9574 137.714 71.3793 138.796 69.9401 140.022C69.3793 140.496 67.6275 142.131 67.7267 142.849C67.9451 144.47 74.1584 143.602 75.1807 143.383C76.5107 143.098 77.7316 142.351 79.0516 142.086C79.8606 141.927 80.6893 142.022 81.5181 142.002C82.6099 141.982 82.4759 141.922 82.868 142.819C83.2451 143.672 83.2054 144.43 83.1806 145.357C83.1558 146.399 82.9077 146.773 82.4511 147.735C82.064 148.548 80.8481 150.627 81.8804 151.255C82.4908 151.624 83.8258 150.697 84.3617 151.36C84.724 151.808 84.4312 153.538 84.4263 154.132C84.4163 155.872 85.0069 156.709 86.9275 156.136C89.126 155.483 90.58 153.434 91.518 151.514C92.4907 149.525 93.2103 148.019 94.9274 146.603C95.3343 146.269 96.2375 145.417 96.8331 145.816C97.1755 146.045 97.0812 146.703 97.4137 146.957C97.6916 147.167 98.2574 147.022 98.57 147.017C100.203 146.987 102.347 146.673 103.93 147.082C104.054 148.184 104.108 147.93 104.838 148.672C105.071 148.922 105.235 149.216 105.334 149.54C105.716 150.044 105.999 150.113 106.491 150.457C108.257 151.694 107.905 153.204 108.471 154.964C108.922 156.365 109.091 157.736 109.419 159.147C109.825 160.897 110.724 162.263 111.791 163.749C113.235 165.753 115.945 166.99 117.751 168.79C118.401 169.438 118.768 170.25 119.379 170.879C120.019 171.542 121.096 171.681 121.91 172.01C123.552 172.673 124.649 172.599 126.386 172C127.116 171.746 127.885 171.606 128.55 171.193C129.825 170.405 130.525 169.428 131.473 168.326C132.088 167.613 132.843 167.144 133.264 166.267C133.721 165.31 133.478 164.347 133.651 163.32C134.004 161.221 134.51 159.137 135.329 157.143C135.716 156.201 135.865 156.086 136.872 156.315C138.207 156.62 138.838 156.585 140.222 156.325C140.748 156.261 141.274 156.196 141.805 156.131C142.401 155.986 142.986 155.573 143.572 155.463C145.145 155.169 144.833 156.654 144.803 157.826C144.778 158.704 144.644 159.327 145.607 159.601C146.445 159.84 147.463 159.586 148.143 159.162C148.917 158.679 149.076 158.315 149.373 157.487C149.622 156.804 149.765 156.51 150.301 155.937C151.081 155.104 151.468 154.426 152.004 153.399C152.326 152.781 152.852 150.442 153.537 150.318C154.425 150.158 154.683 151.046 155.726 150.722C156.669 150.427 157.413 149.031 158.589 149.49C159.403 149.809 159.423 150.806 160.559 150.866C160.49 152.776 163.79 151.599 164.678 152.541C165.026 152.91 165.18 153.424 165.606 153.743C166.266 154.231 166.445 153.977 167.199 154.117C168.326 154.331 168.927 155.139 169.805 155.812C170.673 156.485 170.728 157.053 171.348 157.911C171.835 158.584 172.842 159.427 173.542 159.895C174.256 160.374 175.244 160.513 176.038 160.723C177.075 160.997 178.103 160.773 178.857 159.99C179.189 159.641 179.214 159.302 179.681 159.018C180.043 158.798 180.281 158.893 180.629 158.734C181.428 158.37 181.79 157.846 182.177 157.048C183.155 155.034 183.477 153.209 184.038 151.081C184.326 149.979 184.792 149.346 184.777 148.184C184.758 146.932 185.001 146.08 185.219 144.923C185.398 143.966 185.036 142.949 184.678 142.086C184.361 141.319 184.098 140.107 183.447 139.579C182.862 139.105 181.919 139.185 181.348 138.681C180.653 138.068 180.291 136.951 179.889 136.139C179.428 135.206 179.15 134.389 178.147 133.925C176.619 133.222 174.42 133.631 172.768 133.631C170.381 133.631 167.984 133.676 165.597 133.641C163.582 133.611 161.681 132.768 159.711 132.275C157.587 131.741 155.17 132.444 153.155 131.656C150.857 130.754 148.212 130.889 145.954 131.846C143.8 132.758 142.282 133.855 141.364 136.049C140.962 137.006 140.584 137.265 139.825 137.898C138.922 138.656 138.619 139.903 137.751 140.661C137.16 141.174 135.656 141.518 134.917 141.603C134.068 141.703 132.287 141.867 131.463 141.613C130.396 141.284 130.485 140.292 129.086 140.307C127.726 140.326 126.724 141.304 125.562 141.907C124.729 142.341 123.721 142.635 122.833 142.939C121.994 143.223 121.24 143.253 120.252 143.253C118.962 143.253 118.069 143.313 116.912 142.73C115.647 142.091 115.215 141.289 114.322 140.307C113.662 139.584 112.838 139.474 111.915 139.494C110.744 139.514 110.282 139.369 109.324 138.761C108.257 138.083 107.438 137.749 106.808 136.567C106.352 135.72 106.049 135.047 105.359 134.374C104.064 133.117 103.503 131.447 101.508 131.108C100.58 130.948 99.6072 131.263 98.6842 131.033C98.709 131.038 97.7115 130.604 97.7611 130.639C97.245 130.275 94.5998 128.705 94.0142 128.62L94.0093 128.61Z" fill="#66BD60"/>
<path d="M125.785 141.772C125.711 141.812 125.641 141.862 125.562 141.902C124.728 142.336 123.72 142.63 122.832 142.934C121.993 143.218 121.239 143.248 120.252 143.248C118.961 143.248 118.068 143.308 116.912 142.725C115.646 142.087 115.214 141.279 114.321 140.302C113.661 139.579 112.837 139.469 111.914 139.489C110.743 139.509 110.281 139.364 109.324 138.756C108.257 138.078 107.438 137.739 106.803 136.562C106.346 135.715 106.043 135.042 105.353 134.369C104.058 133.112 103.497 131.447 101.502 131.103C100.574 130.944 99.6016 131.258 98.6786 131.028C98.7034 131.033 97.7059 130.6 97.7555 130.635C97.2394 130.271 94.5943 128.7 94.0087 128.615C93.8995 128.6 93.8002 128.541 93.691 128.516L85.041 156.036C85.4331 156.341 86.0236 156.41 86.9318 156.141C89.1303 155.488 90.5844 153.439 91.5223 151.519C92.495 149.53 93.2146 148.025 94.9367 146.609C95.3436 146.275 96.2468 145.422 96.8424 145.821C97.1848 146.05 97.0905 146.708 97.423 146.963C97.7009 147.172 98.2667 147.027 98.5793 147.022C100.212 146.992 102.356 146.678 103.939 147.087C104.063 148.189 104.118 147.935 104.847 148.678C105.08 148.927 105.244 149.221 105.344 149.545C105.726 150.054 106.009 150.118 106.5 150.462C108.267 151.699 107.914 153.21 108.48 154.97C108.932 156.371 109.1 157.742 109.428 159.153C109.835 160.902 110.733 162.269 111.8 163.754C113.244 165.759 115.954 166.995 117.76 168.795C118.41 169.443 118.778 170.256 119.383 170.884C120.023 171.547 121.1 171.686 121.914 172.016C123.348 172.594 124.39 172.584 125.785 172.18V141.777V141.772Z" fill="#074447"/>
<path d="M171.342 157.917C171.828 158.59 172.836 159.432 173.535 159.901C174.25 160.379 175.238 160.519 176.032 160.728C177.069 161.003 178.096 160.778 178.851 159.996C179.183 159.647 179.208 159.308 179.674 159.023C180.037 158.804 180.275 158.899 180.622 158.739C181.421 158.37 181.784 157.852 182.171 157.054C183.148 155.04 183.471 153.215 184.032 151.086C184.319 149.984 184.786 149.351 184.771 148.19C184.751 146.938 184.994 146.086 185.208 144.929C185.386 143.972 185.024 142.955 184.667 142.092C184.349 141.324 184.086 140.113 183.436 139.584C182.851 139.111 181.908 139.19 181.337 138.682C180.642 138.069 180.28 136.957 179.878 136.139C179.416 135.207 179.138 134.389 178.136 133.926C176.607 133.223 174.409 133.631 172.756 133.631C170.369 133.631 167.972 133.676 165.585 133.641C163.57 133.611 161.67 132.769 159.699 132.275C159.476 132.22 159.243 132.22 159.02 132.186L165.838 153.883C166.3 154.137 166.543 153.993 167.183 154.117C168.31 154.332 168.91 155.14 169.789 155.818C170.657 156.491 170.712 157.054 171.332 157.917H171.342Z" fill="#66BD60"/>
<path d="M156.083 94.5234C156.083 111.335 125.786 149.964 125.786 149.964C125.786 149.964 95.4883 111.335 95.4883 94.5234C95.4883 77.7117 109.051 64.0859 125.786 64.0859C142.52 64.0859 156.083 77.7117 156.083 94.5234Z" fill="#B06574"/>
<path d="M142.718 102.164C144.908 92.7699 139.103 83.3711 129.752 81.1712C120.401 78.9713 111.045 84.8033 108.856 94.1975C106.666 103.592 112.471 112.99 121.822 115.19C131.173 117.39 140.528 111.558 142.718 102.164Z" fill="#7D2945"/>
<path d="M142.716 97.7021C144.906 88.308 139.101 78.9092 129.75 76.7093C120.399 74.5094 111.043 80.3414 108.854 89.7355C106.664 99.1297 112.469 108.528 121.82 110.728C131.171 112.928 140.526 107.096 142.716 97.7021Z" fill="white"/>
</svg>
