<svg width="256" height="256" viewBox="0 0 256 256" fill="none" xmlns="http://www.w3.org/2000/svg">
<path d="M207.547 29.287C209.571 29.287 210.952 29.7471 211.688 30.6675C212.425 31.4038 212.793 32.4162 212.793 33.7047L211.412 223.115C211.412 225.876 209.756 227.256 206.442 227.256H188.771L66.1792 61.5915V164.304L114.498 164.58C117.259 164.58 118.64 166.053 118.64 168.998V183.079C118.64 184.368 118.272 185.472 117.536 186.392C116.799 187.313 115.695 187.773 114.222 187.773L47.4038 187.497C44.6428 187.497 43.2622 186.301 43.2622 183.907V32.8763C43.2622 29.9312 44.8268 28.4586 47.956 28.4586H67.0075C68.8483 28.4586 70.3208 29.1949 71.4253 30.6675L188.771 188.877L189.876 33.4285C189.876 32.3241 190.244 31.4038 190.98 30.6675C191.901 29.7471 192.913 29.287 194.018 29.287H207.547Z" fill="#6C8DB5"/>
<path d="M138.519 204.063C141.28 204.063 142.661 205.536 142.661 208.481V222.563C142.661 223.851 142.201 224.956 141.281 225.876C140.544 226.797 139.532 227.256 138.244 227.256H47.4038C44.6427 227.256 43.2622 225.876 43.2622 223.115V209.034C43.2622 207.561 43.6304 206.365 44.3666 205.444C45.1029 204.524 46.2074 204.063 47.6799 204.063H138.519Z" fill="#6C8DB5"/>
</svg>
