<svg width="100" height="100" viewBox="0 0 100 100" fill="none" xmlns="http://www.w3.org/2000/svg">
<path d="M55.8334 8.33314H25C22.7899 8.33314 20.6703 9.21111 19.1075 10.7739C17.5447 12.3367 16.6667 14.4563 16.6667 16.6665V83.3331C16.6667 85.5433 17.5447 87.6629 19.1075 89.2257C20.6703 90.7885 22.7899 91.6665 25 91.6665H75C77.2102 91.6665 79.3298 90.7885 80.8926 89.2257C82.4554 87.6629 83.3334 85.5433 83.3334 83.3331V52.4998M8.33337 24.9998H25M8.33337 41.6665H25M8.33337 58.3331H25M8.33337 74.9998H25M89.075 23.4415C90.7349 21.7817 91.6673 19.5305 91.6673 17.1831C91.6673 14.8358 90.7349 12.5846 89.075 10.9248C87.4152 9.26499 85.164 8.33252 82.8167 8.33252C80.4694 8.33252 78.2182 9.26499 76.5584 10.9248L55.6834 31.8081C54.6927 32.7982 53.9676 34.022 53.575 35.3665L50.0875 47.3248C49.983 47.6833 49.9767 48.0634 50.0694 48.4252C50.1621 48.787 50.3503 49.1172 50.6144 49.3813C50.8785 49.6454 51.2087 49.8336 51.5705 49.9263C51.9323 50.019 52.3123 50.0127 52.6709 49.9081L64.6292 46.4206C65.9736 46.0281 67.1974 45.3029 68.1875 44.3123L89.075 23.4415Z" stroke="white" stroke-width="6" stroke-linecap="round" stroke-linejoin="round"/>
</svg>
