<svg width="24" height="24" viewBox="0 0 24 24" fill="none" xmlns="http://www.w3.org/2000/svg">
<path fill-rule="evenodd" clip-rule="evenodd" d="M12 20C16.4183 20 20 16.4183 20 12C20 7.58172 16.4183 4 12 4C7.58172 4 4 7.58172 4 12C4 16.4183 7.58172 20 12 20ZM11.0131 13.4167C11.0907 13.5719 11.207 13.7154 11.3622 13.8473L12.072 13.5447C11.9712 13.4672 11.8936 13.3779 11.8393 13.2771C11.785 13.1685 11.7578 13.0676 11.7578 12.9746C11.7578 12.7884 11.8121 12.6255 11.9207 12.4858C12.0371 12.3384 12.1767 12.2027 12.3397 12.0786C12.5103 11.9467 12.6926 11.8148 12.8866 11.6829C13.0805 11.551 13.2589 11.4036 13.4218 11.2407C13.5925 11.0778 13.7321 10.8916 13.8407 10.6822C13.9571 10.4727 14.0153 10.2206 14.0153 9.92583C14.0153 9.67759 13.961 9.44486 13.8524 9.22765C13.7515 9.00268 13.6003 8.80874 13.3986 8.64583C13.2046 8.48292 12.968 8.35492 12.6887 8.26183C12.4095 8.16874 12.0914 8.12219 11.7346 8.12219C11.176 8.12219 10.6834 8.2308 10.2567 8.44801C9.83784 8.65746 9.48875 8.9445 9.20947 9.3091L9.79129 9.93747C10.0085 9.65043 10.2606 9.42159 10.5477 9.25092C10.8347 9.0725 11.1993 8.98328 11.6415 8.98328C12.1069 8.98328 12.4521 9.09189 12.6771 9.3091C12.9021 9.51856 13.0146 9.77068 13.0146 10.0655C13.0146 10.2749 12.9603 10.4572 12.8517 10.6124C12.7508 10.7598 12.6228 10.8994 12.4677 11.0313C12.3125 11.1554 12.1418 11.2795 11.9557 11.4036C11.7772 11.52 11.6104 11.648 11.4553 11.7876C11.3001 11.9273 11.1683 12.0863 11.0597 12.2647C10.9588 12.4432 10.9084 12.6565 10.9084 12.9047C10.9084 13.0832 10.9433 13.2538 11.0131 13.4167ZM11.1527 15.9302C11.2769 16.0543 11.4281 16.1164 11.6066 16.1164C11.785 16.1164 11.9363 16.0543 12.0604 15.9302C12.1845 15.8061 12.2466 15.6548 12.2466 15.4764C12.2466 15.2979 12.1845 15.1467 12.0604 15.0226C11.9363 14.8984 11.785 14.8364 11.6066 14.8364C11.4281 14.8364 11.2769 14.8984 11.1527 15.0226C11.0286 15.1467 10.9666 15.2979 10.9666 15.4764C10.9666 15.6548 11.0286 15.8061 11.1527 15.9302Z" fill="#CDCDCD"/>
</svg>
