<svg width="24" height="24" viewBox="0 0 24 24" fill="none" xmlns="http://www.w3.org/2000/svg">
<path d="M19.7078 6.29208C19.8009 6.38497 19.8748 6.49532 19.9252 6.61681C19.9756 6.7383 20.0016 6.86854 20.0016 7.00008C20.0016 7.13161 19.9756 7.26186 19.9252 7.38335C19.8748 7.50484 19.8009 7.61519 19.7078 7.70808L10.7078 16.7081C10.6149 16.8012 10.5046 16.8751 10.3831 16.9255C10.2616 16.9759 10.1313 17.0019 9.99979 17.0019C9.86825 17.0019 9.73802 16.9759 9.61653 16.9255C9.49504 16.8751 9.38468 16.8012 9.29179 16.7081L5.2918 12.7081C5.10402 12.5203 4.99854 12.2656 4.99854 12.0001C4.99854 11.7345 5.10402 11.4799 5.2918 11.2921C5.47957 11.1043 5.73425 10.9988 5.9998 10.9988C6.26535 10.9988 6.52003 11.1043 6.7078 11.2921L9.99979 14.5861L18.2918 6.29208C18.3847 6.19895 18.495 6.12507 18.6165 6.07465C18.738 6.02424 18.8683 5.99829 18.9998 5.99829C19.1313 5.99829 19.2616 6.02424 19.3831 6.07465C19.5046 6.12507 19.6149 6.19895 19.7078 6.29208Z" fill="#6C8DB5"/>
</svg>
