<svg width="24" height="24" viewBox="0 0 24 24" fill="none" xmlns="http://www.w3.org/2000/svg">
<path d="M2.19467 6.52409H4.56853C4.74216 7.65697 5.72055 8.52797 6.90102 8.52797C8.08149 8.52797 9.05964 7.65673 9.2335 6.52409H22.0888C22.2869 6.52409 22.4476 6.36361 22.4476 6.16535C22.4476 5.96709 22.2869 5.80662 22.0888 5.80662H9.23326C9.05964 4.67398 8.08125 3.80273 6.90078 3.80273C5.72031 3.80273 4.74216 4.67398 4.56829 5.80662H2.19467C1.99641 5.80662 1.83594 5.96709 1.83594 6.16535C1.83594 6.36361 1.99641 6.52409 2.19467 6.52409ZM6.90078 4.5202C7.80742 4.5202 8.54497 5.25752 8.54593 6.16368C8.54593 6.16416 8.54569 6.16464 8.54569 6.16512C8.54569 6.16559 8.54593 6.16607 8.54593 6.16655C8.54497 7.07295 7.80742 7.81027 6.90078 7.81027C5.99366 7.81027 5.25563 7.07223 5.25563 6.16512C5.25563 5.25824 5.99366 4.5202 6.90078 4.5202Z" fill="white"/>
<path d="M13.4742 12.3185C13.6478 13.4512 14.6262 14.3224 15.8067 14.3224C16.9872 14.3224 17.9653 13.4512 18.1392 12.3185H21.8064C22.0044 12.3185 22.1651 12.1578 22.1651 11.9598C22.1651 11.7615 22.0044 11.6011 21.8064 11.6011H18.1389C17.9653 10.4684 16.9869 9.59717 15.8064 9.59717C14.626 9.59717 13.6478 10.4684 13.474 11.6011H1.91244C1.71418 11.6011 1.55371 11.7615 1.55371 11.9598C1.55371 12.1578 1.71418 12.3185 1.91244 12.3185H13.4742ZM15.8067 10.3146C16.7138 10.3146 17.4518 11.0527 17.4518 11.9598C17.4518 12.8669 16.7138 13.6049 15.8067 13.6049C14.9 13.6049 14.1625 12.8676 14.1615 11.9615C14.1615 11.961 14.1618 11.9605 14.1618 11.96C14.1618 11.9595 14.1615 11.9588 14.1615 11.9581C14.1625 11.0517 14.9 10.3146 15.8067 10.3146Z" fill="white"/>
<path d="M22.0884 17.4761H9.23326C9.05964 16.3434 8.08125 15.4722 6.90078 15.4722C5.72031 15.4722 4.74216 16.3434 4.56829 17.4761H2.19467C1.99641 17.4761 1.83594 17.6368 1.83594 17.8348C1.83594 18.0328 1.99641 18.1935 2.19467 18.1935H4.56853C4.74216 19.3262 5.72055 20.1974 6.90102 20.1974C8.08149 20.1974 9.05964 19.3262 9.2335 18.1935H22.0888C22.2869 18.1935 22.4476 18.0328 22.4476 17.8348C22.4476 17.6368 22.2866 17.4761 22.0884 17.4761ZM6.90078 19.4799C5.99366 19.4799 5.25563 18.7419 5.25563 17.8348C5.25563 16.9277 5.99366 16.1896 6.90078 16.1896C7.8079 16.1896 8.54593 16.9277 8.54593 17.8348C8.54593 18.7419 7.8079 19.4799 6.90078 19.4799Z" fill="white"/>
</svg>
