<svg width="230" height="56" viewBox="0 0 230 56" fill="none" xmlns="http://www.w3.org/2000/svg">
<path d="M28.1174 56C43.6462 56 56.2348 43.464 56.2348 28C56.2348 12.536 43.6462 0 28.1174 0C12.5886 0 0 12.536 0 28C0 43.464 12.5886 56 28.1174 56Z" fill="#57BE50"/>
<path d="M28.2219 52.8537C41.9478 52.8537 53.0747 41.7731 53.0747 28.1046C53.0747 14.436 41.9478 3.35547 28.2219 3.35547C14.4961 3.35547 3.36914 14.436 3.36914 28.1046C3.36914 41.7731 14.4961 52.8537 28.2219 52.8537Z" fill="white"/>
<path d="M28.0126 52.8543C41.8548 52.8543 53.076 41.7268 53.076 28.0004C53.076 14.274 41.8548 3.14648 28.0126 3.14648C14.1705 3.14648 2.94922 14.274 2.94922 28.0004C2.94922 41.7268 14.1705 52.8543 28.0126 52.8543Z" fill="#F5F5F5"/>
<path d="M50.4421 28.1045C50.4421 40.3249 40.4938 50.2323 28.2211 50.2323C15.9483 50.2323 6 40.3249 6 28.1045C6 15.884 15.9483 5.97656 28.2211 5.97656C40.4938 5.97656 50.4421 15.884 50.4421 28.1045Z" stroke="black" stroke-width="0.208701"/>
<path d="M28.2219 50.3374C40.5519 50.3374 50.5473 40.3838 50.5473 28.1052C50.5473 15.8267 40.5519 5.87305 28.2219 5.87305C15.8919 5.87305 5.89648 15.8267 5.89648 28.1052C5.89648 40.3838 15.8919 50.3374 28.2219 50.3374Z" fill="#57BE50"/>
<path d="M13.2683 28.3145H11.1621V34.8163H13.2683V28.3145Z" fill="white"/>
<path d="M12.3209 38.3815C13.5422 38.3815 14.5323 37.4894 14.5323 36.389C14.5323 35.2886 13.5422 34.3965 12.3209 34.3965C11.0995 34.3965 10.1094 35.2886 10.1094 36.389C10.1094 37.4894 11.0995 38.3815 12.3209 38.3815Z" fill="white"/>
<path d="M12.321 40.8996L14.4272 37.0195H10.2148L12.321 40.8996Z" fill="white"/>
<path d="M28.3279 36.9138C34.7836 36.9138 40.0171 35.8339 40.0171 34.5018C40.0171 33.1697 34.7836 32.0898 28.3279 32.0898C21.8721 32.0898 16.6387 33.1697 16.6387 34.5018C16.6387 35.8339 21.8721 36.9138 28.3279 36.9138Z" fill="white"/>
<path d="M7.90623 26.6219L13.9579 30.8321L14.0659 29.3207C14.0299 29.8245 13.9795 30.3355 14.0659 28.3491C15.1034 24.6355 20.9101 23.7071 23.6838 23.7071L28.2225 23.5992V16.1504H27.7902L8.44655 24.6787L7.90623 25.1105C7.73332 25.2833 7.61805 25.5423 7.58203 25.6503V25.9742C7.58203 26.1469 7.79816 26.4779 7.90623 26.6219Z" fill="white"/>
<path d="M48.3279 26.6219L42.2763 30.8321L42.1682 29.3207C42.2043 29.8245 42.2547 30.3355 42.1682 28.3491C41.1308 24.6355 35.3241 23.7071 32.5504 23.7071L28.0117 23.5992V16.1504H28.4439L47.7876 24.6787L48.3279 25.1105C48.5009 25.2833 48.6161 25.5423 48.6521 25.6503V25.9742C48.6521 26.1469 48.436 26.4779 48.3279 26.6219Z" fill="white"/>
<path d="M16.4277 28.9442V31.7756C17.3544 30.8528 21.3772 30.3074 23.2728 30.3074H28.2223V26.0078C23.1675 26.0917 21.4825 26.3067 21.2719 26.3224C17.9021 26.5741 16.6384 28.1751 16.4277 28.9442Z" fill="white"/>
<path d="M40.0173 28.9442V31.7756C39.0906 30.8528 35.0678 30.3074 33.1722 30.3074H28.2227V26.0078C33.2775 26.0917 34.9625 26.3067 35.1731 26.3224C38.543 26.5741 39.8067 28.1751 40.0173 28.9442Z" fill="white"/>
<path d="M74.9502 16.3322L76.7686 16.8991C75.8059 20.183 72.7252 22.2796 69.345 22.2796C64.9486 22.2796 61.5684 18.8031 61.5684 14.61C61.5684 10.4382 64.9593 6.92969 69.3557 6.92969C72.7573 6.92969 75.7738 9.05835 76.7686 12.3208L74.9502 12.8771C74.2121 10.4275 71.9657 8.69466 69.3557 8.69466C66.136 8.69466 63.5473 11.2726 63.5473 14.61C63.5473 17.8083 66.0076 20.5253 69.3557 20.5253C71.9764 20.5253 74.1907 18.8566 74.9502 16.3322ZM80.7478 20.5253H85.4651C86.7915 20.5253 88.1072 19.4984 88.1072 17.9581C88.1072 16.5461 86.9306 15.3908 85.4651 15.3908H80.7478V20.5253ZM84.1494 8.69466H80.7478V13.7328H84.2564C85.54 13.69 86.7915 12.6845 86.7915 11.2084C86.7915 9.82852 85.6149 8.69466 84.1494 8.69466ZM88.5565 11.2405C88.5565 12.4064 88.0003 13.444 87.0803 14.1928C88.717 14.7276 89.9899 16.1075 89.9899 17.9902C89.9899 20.4397 88.1072 22.2796 85.6684 22.2796H78.8331V6.95108H84.2457C86.599 6.95108 88.5565 8.72675 88.5565 11.2405ZM93.5947 14.61C93.5947 17.7976 96.0443 20.5253 99.3924 20.5253C102.709 20.5253 105.18 17.8939 105.18 14.61C105.18 11.2939 102.655 8.70536 99.3924 8.70536C96.0871 8.70536 93.5947 11.326 93.5947 14.61ZM91.6158 14.61C91.6158 10.1494 95.2527 6.94038 99.3924 6.94038C103.992 6.94038 107.169 10.5559 107.169 14.61C107.169 19.1561 103.49 22.2796 99.3924 22.2796C94.9425 22.2796 91.6158 18.771 91.6158 14.61ZM111.266 15.4871V20.4932H115.983C117.288 20.4932 118.626 19.4877 118.626 17.9902C118.626 16.6103 117.449 15.4871 115.983 15.4871H111.266ZM111.266 13.7328H116.187C118.529 13.7328 120.508 15.4978 120.508 17.9902C120.508 20.429 118.626 22.2796 116.187 22.2796H109.351V6.95108H119.086V8.73745H111.266V13.7328ZM124.017 14.61C124.017 17.7976 126.466 20.5253 129.814 20.5253C133.13 20.5253 135.601 17.8939 135.601 14.61C135.601 11.2939 133.077 8.70536 129.814 8.70536C126.509 8.70536 124.017 11.326 124.017 14.61ZM122.038 14.61C122.038 10.1494 125.675 6.94038 129.814 6.94038C134.414 6.94038 137.591 10.5559 137.591 14.61C137.591 19.1561 133.911 22.2796 129.814 22.2796C125.365 22.2796 122.038 18.771 122.038 14.61ZM150.588 8.72675H144.95C144.94 12.3743 144.811 16.7921 143.004 20.4825H150.588V8.72675ZM152.502 6.94038V20.4825H154.588V25.4458H152.674V22.2796H141.142V25.4458H139.228V20.4825H140.918C142.993 16.9847 143.036 11.3902 143.068 6.94038H152.502ZM167.071 6.94038H168.997V22.2796H167.071V14.7918H158.824V22.2796H156.91V6.94038H158.824V12.9947H167.071V6.94038ZM173.158 14.61C173.158 17.7976 175.608 20.5253 178.956 20.5253C182.272 20.5253 184.743 17.8939 184.743 14.61C184.743 11.2939 182.218 8.70536 178.956 8.70536C175.65 8.70536 173.158 11.326 173.158 14.61ZM171.179 14.61C171.179 10.1494 174.816 6.94038 178.956 6.94038C183.555 6.94038 186.732 10.5559 186.732 14.61C186.732 19.1561 183.053 22.2796 178.956 22.2796C174.506 22.2796 171.179 18.771 171.179 14.61ZM188.914 6.94038H199.066V8.73745H190.829V13.0054H197.13V14.7918H190.829V20.4932H199.066V22.2796H188.914V6.94038ZM63.558 38.61C63.558 41.7976 66.0076 44.5253 69.3557 44.5253C72.6717 44.5253 75.1427 41.8939 75.1427 38.61C75.1427 35.2939 72.6182 32.7053 69.3557 32.7053C66.0504 32.7053 63.558 35.326 63.558 38.61ZM61.5791 38.61C61.5791 34.1494 65.216 30.9403 69.3557 30.9403C73.9553 30.9403 77.1323 34.5559 77.1323 38.61C77.1323 43.1561 73.4526 46.2796 69.3557 46.2796C64.9058 46.2796 61.5791 42.771 61.5791 38.61ZM81.2292 39.4871V44.4932H85.9465C87.2515 44.4932 88.5886 43.4877 88.5886 41.9902C88.5886 40.6103 87.4119 39.4871 85.9465 39.4871H81.2292ZM81.2292 37.7328H86.1497C88.4923 37.7328 90.4712 39.4978 90.4712 41.9902C90.4712 44.429 88.5886 46.2796 86.1497 46.2796H79.3145V30.951H89.0486V32.7374H81.2292V37.7328ZM94.3863 37.7435H99.1036C100.43 37.7435 101.746 36.738 101.746 35.2405C101.746 33.8606 100.559 32.7374 99.1036 32.7374H94.3863V37.7435ZM92.4715 30.951H99.3068C101.671 30.9617 103.629 32.6946 103.629 35.2405C103.629 37.5938 101.746 39.4978 99.3068 39.4978H94.3863V46.2796H92.4715V30.951ZM110.699 30.9403H112.625L118.743 46.2796H116.829L115.663 43.3914H107.651L106.495 46.2796H104.57L110.699 30.9403ZM111.662 33.3471L108.346 41.6265H114.967L111.662 33.3471ZM119.941 43.5626L121.139 42.2255C122.883 43.8728 124.733 44.4932 126.317 44.5039C128.723 44.5146 130.488 43.1347 130.478 41.5944C130.478 39.6796 127.408 39.3587 125.632 39.3587H123.311V37.6259H125.632C127.215 37.6259 129.707 37.1766 129.707 35.4116C129.707 33.6466 127.943 32.6518 125.921 32.6518C124.498 32.6625 122.926 33.1332 121.546 34.1387L120.455 32.7909C122.273 31.4966 124.231 30.9083 126.017 30.9083C129.119 30.9083 131.612 32.7267 131.612 35.4544C131.622 36.984 130.606 37.8184 129.173 38.3318C130.927 38.856 132.392 39.7224 132.392 41.5944C132.392 44.0974 129.814 46.2582 126.477 46.2796C124.252 46.2903 121.963 45.3597 119.941 43.5626ZM136.04 38.61C136.04 41.7976 138.49 44.5253 141.838 44.5253C145.154 44.5253 147.625 41.8939 147.625 38.61C147.625 35.2939 145.1 32.7053 141.838 32.7053C138.532 32.7053 136.04 35.326 136.04 38.61ZM134.061 38.61C134.061 34.1494 137.698 30.9403 141.838 30.9403C146.437 30.9403 149.614 34.5559 149.614 38.61C149.614 43.1561 145.935 46.2796 141.838 46.2796C137.388 46.2796 134.061 42.771 134.061 38.61ZM153.743 44.5253H158.461C159.787 44.5253 161.103 43.4984 161.103 41.9581C161.103 40.5461 159.926 39.3908 158.461 39.3908H153.743V44.5253ZM157.145 32.6946H153.743V37.7328H157.252C158.535 37.69 159.787 36.6845 159.787 35.2084C159.787 33.8285 158.61 32.6946 157.145 32.6946ZM161.552 35.2405C161.552 36.4064 160.996 37.444 160.076 38.1928C161.712 38.7276 162.985 40.1075 162.985 41.9902C162.985 44.4397 161.103 46.2796 158.664 46.2796H151.829V30.951H157.241C159.594 30.951 161.552 32.7267 161.552 35.2405ZM170.409 30.9403H172.334L178.453 46.2796H176.538L175.372 43.3914H167.36L166.205 46.2796H164.28L170.409 30.9403ZM171.372 33.3471L168.056 41.6265H174.677L171.372 33.3471ZM190.455 30.9403H192.38V46.2796H190.455V38.7918H182.207V46.2796H180.293V30.9403H182.207V36.9947H190.455V30.9403ZM195.033 30.951H196.948V42.9422L206.693 30.951H207.805V46.2796H205.89V34.2884L196.145 46.2796H195.033V30.951ZM210.458 30.9403H220.609V32.7374H212.373V37.0054H218.673V38.7918H212.373V44.4932H220.609V46.2796H210.458V30.9403Z" fill="white"/>
</svg>
