<svg width="230" height="56" viewBox="0 0 230 56" fill="none" xmlns="http://www.w3.org/2000/svg">
<ellipse cx="28.1174" cy="28" rx="28.1174" ry="28" fill="#57BE50"/>
<ellipse cx="28.2219" cy="28.105" rx="24.8528" ry="24.7491" fill="white"/>
<ellipse cx="28.0126" cy="27.9999" rx="25.0634" ry="24.8539" fill="#F5F5F5"/>
<path d="M50.4429 28.1048C50.4429 40.3252 40.4946 50.2326 28.2219 50.2326C15.9491 50.2326 6.00083 40.3252 6.00083 28.1048C6.00083 15.8843 15.9491 5.97691 28.2219 5.97691C40.4946 5.97691 50.4429 15.8843 50.4429 28.1048Z" stroke="black" stroke-width="0.208701"/>
<ellipse cx="28.2219" cy="28.1048" rx="22.3254" ry="22.2322" fill="#57BE50"/>
<rect x="11.1621" y="28.3145" width="2.10617" height="6.50187" fill="white"/>
<ellipse cx="12.3209" cy="36.3895" rx="2.21148" ry="1.99251" fill="white"/>
<path d="M12.321 40.8989L14.4272 37.0188H10.2148L12.321 40.8989Z" fill="white"/>
<ellipse cx="28.3279" cy="34.5018" rx="11.6892" ry="2.41198" fill="white"/>
<path d="M7.90623 26.6214L13.9579 30.8316L14.0659 29.3202C14.0299 29.824 13.9795 30.335 14.0659 28.3486C15.1034 24.635 20.9101 23.7066 23.6838 23.7066L28.2225 23.5987V16.1499H27.7902L8.44655 24.6782L7.90623 25.11C7.73332 25.2828 7.61805 25.5418 7.58203 25.6498V25.9737C7.58203 26.1464 7.79816 26.4774 7.90623 26.6214Z" fill="white"/>
<path d="M48.3281 26.6214L42.2765 30.8316L42.1684 29.3202C42.2045 29.824 42.2549 30.335 42.1684 28.3486C41.131 24.635 35.3243 23.7066 32.5506 23.7066L28.0119 23.5987V16.1499H28.4441L47.7878 24.6782L48.3281 25.11C48.5011 25.2828 48.6163 25.5418 48.6523 25.6498V25.9737C48.6523 26.1464 48.4362 26.4774 48.3281 26.6214Z" fill="white"/>
<path d="M16.4277 28.9437V31.7751C17.3544 30.8523 21.3772 30.3069 23.2728 30.3069H28.2223V26.0073C23.1675 26.0912 21.4825 26.3062 21.2719 26.3219C17.9021 26.5736 16.6384 28.1746 16.4277 28.9437Z" fill="white"/>
<path d="M40.0176 28.9437V31.7751C39.0909 30.8523 35.0681 30.3069 33.1725 30.3069H28.223V26.0073C33.2778 26.0912 34.9628 26.3062 35.1734 26.3219C38.5433 26.5736 39.807 28.1746 40.0176 28.9437Z" fill="white"/>
<path d="M74.9505 16.3324L76.7689 16.8993C75.8062 20.1832 72.7255 22.2798 69.3453 22.2798C64.9489 22.2798 61.5687 18.8033 61.5687 14.6102C61.5687 10.4384 64.9596 6.92985 69.356 6.92985C72.7576 6.92985 75.7741 9.05851 76.7689 12.321L74.9505 12.8773C74.2124 10.4277 71.966 8.69482 69.356 8.69482C66.1363 8.69482 63.5476 11.2728 63.5476 14.6102C63.5476 17.8085 66.0079 20.5255 69.356 20.5255C71.9767 20.5255 74.191 18.8568 74.9505 16.3324ZM80.7481 20.5255H85.4654C86.7918 20.5255 88.1075 19.4986 88.1075 17.9583C88.1075 16.5463 86.9309 15.391 85.4654 15.391H80.7481V20.5255ZM84.1497 8.69482H80.7481V13.733H84.2567C85.5403 13.6902 86.7918 12.6847 86.7918 11.2086C86.7918 9.82868 85.6152 8.69482 84.1497 8.69482ZM88.5568 11.2407C88.5568 12.4066 88.0006 13.4442 87.0806 14.193C88.7173 14.7278 89.9902 16.1077 89.9902 17.9904C89.9902 20.4399 88.1075 22.2798 85.6687 22.2798H78.8334V6.95124H84.246C86.5993 6.95124 88.5568 8.72691 88.5568 11.2407ZM93.595 14.6102C93.595 17.7978 96.0446 20.5255 99.3927 20.5255C102.709 20.5255 105.18 17.8941 105.18 14.6102C105.18 11.2941 102.655 8.70552 99.3927 8.70552C96.0874 8.70552 93.595 11.3262 93.595 14.6102ZM91.6161 14.6102C91.6161 10.1496 95.253 6.94054 99.3927 6.94054C103.992 6.94054 107.169 10.5561 107.169 14.6102C107.169 19.1563 103.49 22.2798 99.3927 22.2798C94.9428 22.2798 91.6161 18.7712 91.6161 14.6102ZM111.266 15.4873V20.4934H115.983C117.288 20.4934 118.626 19.4879 118.626 17.9904C118.626 16.6105 117.449 15.4873 115.983 15.4873H111.266ZM111.266 13.733H116.187C118.529 13.733 120.508 15.498 120.508 17.9904C120.508 20.4292 118.626 22.2798 116.187 22.2798H109.351V6.95124H119.086V8.73761H111.266V13.733ZM124.017 14.6102C124.017 17.7978 126.466 20.5255 129.814 20.5255C133.13 20.5255 135.601 17.8941 135.601 14.6102C135.601 11.2941 133.077 8.70552 129.814 8.70552C126.509 8.70552 124.017 11.3262 124.017 14.6102ZM122.038 14.6102C122.038 10.1496 125.675 6.94054 129.814 6.94054C134.414 6.94054 137.591 10.5561 137.591 14.6102C137.591 19.1563 133.911 22.2798 129.814 22.2798C125.365 22.2798 122.038 18.7712 122.038 14.6102ZM150.588 8.72691H144.95C144.94 12.3745 144.811 16.7923 143.004 20.4827H150.588V8.72691ZM152.502 6.94054V20.4827H154.588V25.446H152.674V22.2798H141.142V25.446H139.228V20.4827H140.918C142.993 16.9849 143.036 11.3904 143.068 6.94054H152.502ZM167.071 6.94054H168.997V22.2798H167.071V14.792H158.824V22.2798H156.91V6.94054H158.824V12.9949H167.071V6.94054ZM173.158 14.6102C173.158 17.7978 175.608 20.5255 178.956 20.5255C182.272 20.5255 184.743 17.8941 184.743 14.6102C184.743 11.2941 182.218 8.70552 178.956 8.70552C175.65 8.70552 173.158 11.3262 173.158 14.6102ZM171.179 14.6102C171.179 10.1496 174.816 6.94054 178.956 6.94054C183.555 6.94054 186.732 10.5561 186.732 14.6102C186.732 19.1563 183.053 22.2798 178.956 22.2798C174.506 22.2798 171.179 18.7712 171.179 14.6102ZM188.914 6.94054H199.066V8.73761H190.829V13.0056H197.13V14.792H190.829V20.4934H199.066V22.2798H188.914V6.94054ZM63.5583 38.6102C63.5583 41.7978 66.0079 44.5255 69.356 44.5255C72.672 44.5255 75.143 41.8941 75.143 38.6102C75.143 35.2941 72.6185 32.7055 69.356 32.7055C66.0507 32.7055 63.5583 35.3262 63.5583 38.6102ZM61.5794 38.6102C61.5794 34.1496 65.2163 30.9405 69.356 30.9405C73.9556 30.9405 77.1326 34.5561 77.1326 38.6102C77.1326 43.1563 73.4529 46.2798 69.356 46.2798C64.9061 46.2798 61.5794 42.7712 61.5794 38.6102ZM81.2295 39.4873V44.4934H85.9468C87.2518 44.4934 88.5889 43.4879 88.5889 41.9904C88.5889 40.6105 87.4122 39.4873 85.9468 39.4873H81.2295ZM81.2295 37.733H86.15C88.4926 37.733 90.4715 39.498 90.4715 41.9904C90.4715 44.4292 88.5889 46.2798 86.15 46.2798H79.3148V30.9512H89.0489V32.7376H81.2295V37.733ZM94.3866 37.7437H99.1039C100.43 37.7437 101.746 36.7382 101.746 35.2407C101.746 33.8608 100.559 32.7376 99.1039 32.7376H94.3866V37.7437ZM92.4718 30.9512H99.3071C101.671 30.9619 103.629 32.6948 103.629 35.2407C103.629 37.594 101.746 39.498 99.3071 39.498H94.3866V46.2798H92.4718V30.9512ZM110.699 30.9405H112.625L118.743 46.2798H116.829L115.663 43.3916H107.651L106.495 46.2798H104.57L110.699 30.9405ZM111.662 33.3473L108.346 41.6267H114.967L111.662 33.3473ZM119.941 43.5628L121.139 42.2257C122.883 43.873 124.733 44.4934 126.317 44.5041C128.723 44.5148 130.488 43.1349 130.478 41.5946C130.478 39.6798 127.408 39.3589 125.632 39.3589H123.311V37.6261H125.632C127.215 37.6261 129.707 37.1768 129.707 35.4118C129.707 33.6468 127.943 32.652 125.921 32.652C124.498 32.6627 122.926 33.1334 121.546 34.1389L120.455 32.7911C122.273 31.4968 124.231 30.9085 126.017 30.9085C129.119 30.9085 131.612 32.7269 131.612 35.4546C131.622 36.9842 130.606 37.8186 129.173 38.332C130.927 38.8562 132.392 39.7226 132.392 41.5946C132.392 44.0976 129.814 46.2584 126.477 46.2798C124.252 46.2905 121.963 45.3599 119.941 43.5628ZM136.04 38.6102C136.04 41.7978 138.49 44.5255 141.838 44.5255C145.154 44.5255 147.625 41.8941 147.625 38.6102C147.625 35.2941 145.1 32.7055 141.838 32.7055C138.532 32.7055 136.04 35.3262 136.04 38.6102ZM134.061 38.6102C134.061 34.1496 137.698 30.9405 141.838 30.9405C146.437 30.9405 149.614 34.5561 149.614 38.6102C149.614 43.1563 145.935 46.2798 141.838 46.2798C137.388 46.2798 134.061 42.7712 134.061 38.6102ZM153.743 44.5255H158.461C159.787 44.5255 161.103 43.4986 161.103 41.9583C161.103 40.5463 159.926 39.391 158.461 39.391H153.743V44.5255ZM157.145 32.6948H153.743V37.733H157.252C158.535 37.6902 159.787 36.6847 159.787 35.2086C159.787 33.8287 158.61 32.6948 157.145 32.6948ZM161.552 35.2407C161.552 36.4066 160.996 37.4442 160.076 38.193C161.712 38.7278 162.985 40.1077 162.985 41.9904C162.985 44.4399 161.103 46.2798 158.664 46.2798H151.829V30.9512H157.241C159.594 30.9512 161.552 32.7269 161.552 35.2407ZM170.409 30.9405H172.334L178.453 46.2798H176.538L175.372 43.3916H167.36L166.205 46.2798H164.28L170.409 30.9405ZM171.372 33.3473L168.056 41.6267H174.677L171.372 33.3473ZM190.455 30.9405H192.38V46.2798H190.455V38.792H182.207V46.2798H180.293V30.9405H182.207V36.9949H190.455V30.9405ZM195.033 30.9512H196.948V42.9424L206.693 30.9512H207.805V46.2798H205.89V34.2886L196.145 46.2798H195.033V30.9512ZM210.458 30.9405H220.609V32.7376H212.373V37.0056H218.673V38.792H212.373V44.4934H220.609V46.2798H210.458V30.9405Z" fill="#57BE50"/>
</svg>
