<svg width="240" height="200" viewBox="0 0 240 200" fill="none" xmlns="http://www.w3.org/2000/svg">
<path d="M121.467 103.115C121.467 103.115 130.153 102.43 134.103 106.532C145.765 118.635 148.805 135.892 148.805 135.892H79.6016C79.6016 135.892 83.0588 121.316 85.5631 114.071C88.0673 106.826 97.1313 105.89 97.1313 105.89L121.464 103.115H121.467Z" fill="#42923C"/>
<path d="M112.959 95.3291L113.827 99.4402C114.317 101.765 116.36 103.428 118.727 103.428C118.709 103.251 117.114 113.092 102.297 116.096C102.297 116.096 94.4937 117.167 96.7516 107.283L92.8281 100.258L112.959 95.332V95.3291Z" fill="#FFE3D0"/>
<path d="M80.0596 93.4225C80.0596 93.4225 73.8312 100.682 73.6406 103.784C73.45 106.883 80.2883 108.148 80.2883 108.148C80.2883 108.148 81.5873 104.902 81.8161 103.802C81.8161 103.802 81.819 106.68 81.1064 108.042L83.0653 108.828C83.0653 108.828 85.8921 104.879 85.5314 99.258C85.1707 93.6403 83.728 89.8912 80.0596 93.4225Z" fill="black"/>
<path d="M123.929 87.1364C123.929 87.1364 131.811 92.5423 132.788 95.488C133.767 98.4337 127.483 101.421 127.483 101.421C127.483 101.421 125.395 98.6191 124.894 97.6156C124.894 97.6156 125.627 100.399 126.668 101.529L124.976 102.795C124.976 102.795 121.231 99.7079 120.137 94.1873C119.047 88.6637 119.475 84.6704 123.929 87.1364Z" fill="black"/>
<path d="M74.5509 74.1326C74.5509 74.1326 69.8943 54.1424 90.0543 47.0474C99.9687 43.5573 108.98 43.4484 115.824 48.8307C122.266 53.8952 126.498 62.6382 125.166 70.7426L124.589 74.268L76.2282 80.6214L74.5538 74.1356L74.5509 74.1326Z" fill="black"/>
<path d="M120.997 75.2302C120.997 75.2302 122.34 84.7148 121.202 90.0765C121.202 90.0765 115.997 105.723 99.9721 107.277C79.856 109.225 71.9592 76.4397 79.7505 60.6341C87.5418 44.8285 107.623 49.3603 113.182 55.7873C116.637 59.7807 120.414 65.2925 120.997 75.2302Z" fill="#FFE3D0"/>
<path d="M91.3886 83.7022C91.6818 85.2766 90.9253 86.7421 89.6995 86.9716C88.4709 87.2041 87.2364 86.1153 86.9431 84.5379C86.6469 82.9635 87.4035 81.498 88.6322 81.2685C89.8608 81.036 91.0954 82.1278 91.3886 83.7022Z" fill="black"/>
<path d="M109.166 79.0909C109.459 80.6653 108.706 82.1308 107.477 82.3603C106.248 82.5928 105.014 81.501 104.72 79.9267C104.424 78.3523 105.181 76.8868 106.409 76.6572C107.638 76.4248 108.873 77.5136 109.166 79.0909Z" fill="black"/>
<path d="M95.4178 87.881C95.4237 87.8604 95.4296 87.8368 95.4354 87.8162C95.8518 86.545 96.4764 85.821 97.2887 85.671C98.5144 85.4444 99.5231 86.645 99.6346 86.7833C99.8428 87.0393 99.8046 87.419 99.5466 87.6308C99.2885 87.8427 98.9103 87.8045 98.7021 87.5455C98.4909 87.2865 97.9191 86.7804 97.5027 86.8598C97.1655 86.9216 96.8342 87.3984 96.5761 88.1929C96.4735 88.5107 96.1333 88.6814 95.8166 88.5784C95.5234 88.4813 95.3533 88.1782 95.4149 87.8839L95.4178 87.881Z" fill="black"/>
<path d="M109.36 72.3527C109.263 72.388 109.149 72.3821 109.04 72.3262C108.914 72.2614 105.929 70.7959 104.196 73.0501C104.035 73.259 103.741 73.2443 103.539 73.0148C103.337 72.7853 103.305 72.4321 103.466 72.2202C105.586 69.4658 109.137 71.2227 109.287 71.2962C109.536 71.4228 109.682 71.7553 109.615 72.0378C109.577 72.1938 109.483 72.3026 109.363 72.3468L109.36 72.3527Z" fill="black"/>
<path d="M88.7008 76.4486C88.6304 76.4927 88.5366 76.5016 88.431 76.4633C88.3108 76.4192 85.4547 75.4039 84.6659 77.7287C84.5926 77.9435 84.3462 77.9671 84.1175 77.7758C83.8888 77.5845 83.7598 77.2579 83.8331 77.043C84.7949 74.2062 88.1964 75.4216 88.3401 75.4745C88.5806 75.5628 88.7917 75.8542 88.8181 76.1278C88.8328 76.2779 88.7829 76.3927 88.6979 76.4486H88.7008Z" fill="black"/>
<path d="M116.866 80.1354C117.004 84.117 119.288 87.2687 121.968 87.1745C124.648 87.0804 126.71 83.7786 126.572 79.797C126.434 75.8155 124.15 72.6637 121.47 72.7579C118.79 72.8521 116.728 76.1539 116.866 80.1354Z" fill="#FFE3D0"/>
<path d="M82.2566 84.7649C83.799 88.1109 83.2214 91.6716 80.9693 92.7163C78.7173 93.761 75.6412 91.8982 74.0988 88.5523C72.5564 85.2064 73.134 81.6456 75.3861 80.6009C77.6381 79.5562 80.7142 81.419 82.2566 84.7649Z" fill="#FFE3D0"/>
<path d="M121.472 72.7581L120.789 72.8463C120.475 72.7286 97.9839 62.2053 94.1953 50.0928C94.1953 50.0928 106.869 47.0206 114.197 53.068C121.522 59.1124 121.472 72.7581 121.472 72.7581Z" fill="black"/>
<path d="M94.1969 50.0964C94.1969 50.0964 83.9688 76.3165 77.0777 80.3334C77.0777 80.3334 74.1366 70.2132 76.503 64.4336C78.8694 58.6569 84.7664 49.9552 94.1939 50.0964H94.1969Z" fill="black"/>
<path d="M96.5782 95.8124C96.9066 95.8124 97.2526 95.8006 97.6192 95.7741C103.299 95.3709 106.044 90.9656 106.155 90.7773C106.284 90.5683 106.217 90.2947 106.009 90.1652C105.8 90.0386 105.528 90.1034 105.399 90.3123C105.366 90.3653 102.76 94.5146 97.5576 94.8854C92.5432 95.2415 91.9098 92.8843 91.8864 92.7842C91.8277 92.5488 91.5902 92.3987 91.3527 92.4547C91.1152 92.5106 90.9656 92.743 91.0184 92.9814C91.0448 93.105 91.6987 95.8124 96.5782 95.8124Z" fill="black"/>
<path d="M185.049 90.2409C185.049 90.2409 197.814 88.9549 208.068 98.1187C218.323 107.285 220.076 135.889 220.076 135.889H121.578C121.578 135.889 127.672 100.108 154.652 94.3725C181.636 88.64 185.049 90.2379 185.049 90.2379V90.2409Z" fill="#B06574"/>
<path d="M176.352 153.976V156.366L208.068 135.816V133.424L176.352 153.976Z" fill="#C5BFBF"/>
<path d="M134.633 156.365C135.076 156.298 147.221 152.36 156.734 152.375C167.766 152.393 176.352 156.365 176.352 156.365V153.973C176.352 153.973 168.557 149.979 156.734 149.979C144.911 149.979 134.633 153.97 134.633 153.97V156.362V156.365Z" fill="#C5BFBF"/>
<path d="M96.793 152.855C96.793 152.855 105.555 152.36 115.067 152.375C126.099 152.393 134.635 156.365 134.635 156.365V153.973C134.635 153.973 127.064 149.982 115.067 149.982C103.071 149.982 96.793 150.462 96.793 150.462V152.855Z" fill="#C5BFBF"/>
<path d="M176.352 153.972C176.352 153.972 167.766 149.997 156.734 149.982C147.221 149.967 135.079 153.905 134.633 153.972L167.373 132.758C167.815 132.69 179.961 128.753 189.474 128.768C200.506 128.785 209.091 132.758 209.091 132.758L176.352 153.972Z" fill="white"/>
<path d="M134.631 153.973C134.631 153.973 126.095 149.997 115.064 149.982C105.551 149.968 96.7891 150.462 96.7891 150.462L129.529 129.248C129.529 129.248 138.291 128.753 147.803 128.768C158.835 128.786 167.371 132.758 167.371 132.758L134.631 153.973Z" fill="white"/>
<path d="M175.885 149.609C175.841 149.609 175.797 149.603 175.75 149.588C172.22 148.467 166.678 147.131 160.314 147.122H160.265C156.781 147.122 152.535 147.652 147.647 148.699C147.406 148.749 147.172 148.596 147.119 148.355C147.069 148.114 147.221 147.878 147.462 147.825C152.438 146.76 156.769 146.236 160.317 146.228C166.792 146.236 172.431 147.596 176.02 148.738C176.255 148.811 176.384 149.061 176.311 149.297C176.252 149.485 176.076 149.609 175.888 149.609H175.885Z" fill="#285546"/>
<path d="M180.727 145.715C180.683 145.715 180.639 145.709 180.592 145.695C177.062 144.573 171.519 143.237 165.156 143.229C162.121 143.234 159.072 143.526 155.573 144.179C155.33 144.223 155.101 144.064 155.054 143.823C155.01 143.582 155.169 143.349 155.409 143.302C158.934 142.643 162.013 142.337 165.086 142.337H165.153C171.628 142.346 177.267 143.705 180.856 144.847C181.091 144.921 181.22 145.171 181.146 145.406C181.088 145.595 180.912 145.718 180.724 145.718L180.727 145.715Z" fill="#285546"/>
<path d="M188.199 141.289C188.152 141.289 188.103 141.28 188.053 141.265C188.029 141.257 185.619 140.433 181.197 139.882C177.112 139.376 170.429 139.011 161.776 140.138C161.535 140.171 161.31 139.997 161.277 139.753C161.245 139.509 161.418 139.285 161.661 139.253C170.426 138.111 177.203 138.484 181.343 138.999C185.848 139.562 188.246 140.386 188.346 140.421C188.578 140.5 188.701 140.756 188.619 140.989C188.554 141.174 188.384 141.289 188.199 141.289Z" fill="#285546"/>
<path d="M195.891 137.369C195.847 137.369 195.803 137.364 195.756 137.349C195.504 137.269 195.234 137.178 194.944 137.084C191.141 135.83 184.065 133.494 169.013 135.769C168.773 135.807 168.544 135.639 168.509 135.395C168.473 135.151 168.638 134.924 168.881 134.889C184.144 132.582 191.349 134.959 195.223 136.236C195.51 136.331 195.777 136.419 196.026 136.498C196.261 136.572 196.39 136.822 196.316 137.057C196.258 137.246 196.082 137.369 195.894 137.369H195.891Z" fill="#285546"/>
<path d="M136.666 153.101C136.519 153.101 136.378 153.031 136.293 152.898C136.161 152.692 136.22 152.416 136.425 152.283L166.109 133.049C166.315 132.917 166.59 132.976 166.722 133.182C166.854 133.388 166.796 133.664 166.59 133.797L136.906 153.031C136.833 153.078 136.748 153.101 136.666 153.101Z" fill="#C5BFBF"/>
<path d="M137.725 149.117C137.663 149.117 137.599 149.103 137.537 149.076C137.452 149.038 128.954 145.142 118.157 145.127C115.955 145.121 113.615 145.147 111.202 145.197H111.193C110.952 145.197 110.753 145.003 110.75 144.762C110.744 144.515 110.941 144.312 111.184 144.306C113.603 144.256 115.952 144.229 118.16 144.235C129.162 144.253 137.828 148.229 137.913 148.27C138.136 148.373 138.232 148.638 138.13 148.861C138.053 149.023 137.895 149.12 137.728 149.12L137.725 149.117Z" fill="#285546"/>
<path d="M143.125 144.877C143.064 144.877 142.999 144.865 142.938 144.836C142.853 144.798 134.358 140.901 123.558 140.887C121.323 140.884 118.948 140.907 116.491 140.96H116.482C116.242 140.96 116.045 140.766 116.039 140.525C116.033 140.277 116.23 140.074 116.473 140.069C118.936 140.016 121.323 139.989 123.561 139.995C134.563 140.013 143.228 143.988 143.313 144.027C143.536 144.13 143.633 144.394 143.53 144.618C143.454 144.78 143.296 144.877 143.128 144.877H143.125Z" fill="#285546"/>
<path d="M149.032 140.893C148.971 140.893 148.906 140.881 148.845 140.851C148.76 140.813 140.265 136.917 129.465 136.902C127.005 136.896 124.357 136.929 121.591 136.993H121.58C121.339 136.993 121.143 136.802 121.137 136.558C121.131 136.311 121.325 136.108 121.571 136.102C124.345 136.037 127.002 136.005 129.468 136.01C140.47 136.028 149.135 140.004 149.22 140.045C149.443 140.148 149.54 140.413 149.437 140.636C149.361 140.798 149.203 140.895 149.035 140.895L149.032 140.893Z" fill="#285546"/>
<path d="M114.387 176.335L112.836 177.286L114.387 181.997L147.109 160.794C148.309 160.017 149.033 158.681 149.033 157.248V153.885L114.387 176.335Z" fill="black"/>
<path d="M73.1528 152.372H147.647C149.04 152.372 149.573 154.194 148.403 154.953L113.279 177.712C113.227 177.745 113.168 177.762 113.106 177.762H34.9558C34.6391 177.762 34.5159 177.347 34.7828 177.174L72.9827 152.422C73.0355 152.39 73.0941 152.372 73.1557 152.372H73.1528Z" fill="#D4D4D4"/>
<path d="M95.9466 154.88L88.0762 159.979C87.7096 160.215 87.8767 160.786 88.3137 160.786H110.345C111.004 160.786 111.649 160.594 112.201 160.235L120.124 155.1C120.491 154.865 120.323 154.294 119.886 154.294H97.9172C97.2163 154.294 96.5331 154.497 95.9437 154.877L95.9466 154.88Z" fill="white"/>
<path d="M43.4654 175.841H111.602C112.276 175.841 112.936 175.647 113.502 175.279L132.475 162.949C132.955 162.637 132.736 161.89 132.164 161.89H62.7634C62.1622 161.89 61.5728 162.063 61.0684 162.393L42.9699 174.155C42.2045 174.652 42.5564 175.844 43.4684 175.844L43.4654 175.841Z" fill="white"/>
<path d="M30.4904 182H114.385L93.4542 118.371C91.8942 114.154 87.8827 111.353 83.3991 111.353H9.23952C4.05802 111.353 1.81183 114.631 3.61524 119.507L22.1713 175.949C23.3501 179.557 26.7076 182 30.4933 182H30.4904Z" fill="#D4D4D4"/>
<path d="M48.3398 148.673C48.3398 151.198 50.3808 153.246 52.8967 153.246C55.4127 153.246 57.4536 151.198 57.4536 148.673C57.4536 146.148 55.4127 144.1 52.8967 144.1C50.3808 144.1 48.3398 146.148 48.3398 148.673Z" fill="white"/>
<path d="M123.697 56.1403C123.697 56.1403 117.797 29.8908 141.986 21.6304C166.175 13.3701 179.614 25.6238 187.625 43.4481L123.697 56.1403Z" fill="black"/>
<path d="M168.857 77.3955L172.1 86.5711L180.654 90.2407C180.654 90.2407 183.014 113.362 161.189 111.214C161.189 111.214 151.611 109.142 152.714 97.2651L146.148 86.2768L168.857 77.3984V77.3955Z" fill="#FFE3D0"/>
<path d="M178.237 57.5053C178.237 57.5053 179.73 68.3553 178.237 77.5573C178.237 77.5573 170.112 99.0807 150.855 99.0955C127.871 99.1131 119.593 59.165 128.845 40.2254C138.096 21.2857 162.133 26.6209 168.807 34.2839C172.953 39.0453 177.495 45.6224 178.237 57.5053Z" fill="#FFE3D0"/>
<path d="M138.424 67.8464C138.782 69.7298 137.885 71.4837 136.419 71.7662C134.952 72.0487 133.471 70.7509 133.111 68.8676C132.75 66.9842 133.65 65.2303 135.117 64.9478C136.583 64.6653 138.064 65.9631 138.424 67.8464Z" fill="black"/>
<path d="M160.948 62.0759C161.308 63.9593 160.408 65.7132 158.942 65.9957C157.476 66.2782 155.995 64.9804 155.634 63.0971C155.274 61.2137 156.174 59.4598 157.64 59.1773C159.106 58.8948 160.587 60.1925 160.948 62.0759Z" fill="black"/>
<path d="M143.777 73.7471C143.765 73.7236 143.754 73.6971 143.745 73.6736C143.185 72.1728 143.229 71.031 143.877 70.2806C144.85 69.1505 146.689 69.5125 146.897 69.5566C147.284 69.639 147.531 70.0216 147.446 70.41C147.363 70.7985 146.982 71.0486 146.592 70.9662C146.202 70.8838 145.293 70.8397 144.962 71.2252C144.695 71.5371 144.739 72.2287 145.091 73.1674C145.229 73.5411 145.041 73.9561 144.669 74.0973C144.323 74.2268 143.938 74.0708 143.774 73.7501L143.777 73.7471Z" fill="black"/>
<path d="M160.116 53.5388C160.002 53.583 159.864 53.5771 159.732 53.5094C159.58 53.4329 156.002 51.6908 153.941 54.3981C153.747 54.6483 153.398 54.6335 153.155 54.3599C152.912 54.0862 152.871 53.6624 153.061 53.4123C155.583 50.1076 159.838 52.194 160.02 52.2823C160.319 52.4324 160.495 52.8267 160.416 53.168C160.372 53.3564 160.257 53.4859 160.116 53.5388Z" fill="black"/>
<path d="M135.55 58.3059C135.456 58.3412 135.345 58.3265 135.23 58.2529C135.101 58.1676 132.034 56.2342 130.506 58.7384C130.363 58.9709 130.072 58.9297 129.855 58.6502C129.638 58.3677 129.574 57.9527 129.717 57.7203C131.582 54.6627 135.233 56.9787 135.389 57.0787C135.644 57.2465 135.817 57.6437 135.773 57.9674C135.749 58.147 135.664 58.2676 135.55 58.3117V58.3059Z" fill="black"/>
<path d="M142.633 28.3218C142.633 28.3218 142.952 40.5784 158.685 44.0068C163.813 45.125 168.511 47.8118 172.068 51.6845C174.842 54.7067 176.71 58.2115 174.581 61.1219L178.241 77.5573C178.241 77.5573 194.134 68.367 188.85 47.3733C183.563 26.3796 161.227 12.8134 142.636 28.3189L142.633 28.3218Z" fill="black"/>
<path d="M160.281 74.1416C160.281 74.1416 161.885 83.7586 154.733 86.0804C147.581 88.4023 142.695 82.9846 142.695 82.9846L160.281 74.1416Z" fill="white"/>
<path d="M185.491 65.1519C187.128 60.6807 186.015 56.1557 183.003 55.0451C179.992 53.9344 176.224 56.6586 174.586 61.1298C172.949 65.601 174.062 70.126 177.074 71.2366C180.085 72.3473 183.853 69.6231 185.491 65.1519Z" fill="#FFE3D0"/>
<path d="M142.633 28.3227C142.633 28.3227 139.346 35.406 136.566 44.7493C135.223 49.2605 134.25 53.8718 129.881 55.5904C127.646 56.4703 125.447 56.844 123.702 56.1407C116.093 53.0626 121.157 33.0488 131.493 27.7253C141.83 22.4019 142.633 28.3227 142.633 28.3227Z" fill="black"/>
<path d="M207.659 57.4062C207.659 57.4062 208.111 63.0387 211.504 69.089C214.43 74.3154 226.679 93.62 234.825 106.324C238.924 112.719 237.059 121.235 230.67 125.317C223.098 130.154 213.014 126.482 210.296 117.895L192.737 63.6891C192.737 63.6891 189.042 62.5149 186.983 55.7583C184.925 48.9988 207.659 57.4062 207.659 57.4062Z" fill="#FFE3D0"/>
<path d="M200.98 63.7627C203.103 63.2536 207.074 63.1241 208.326 55.0756C209.581 47.0272 211.425 40.25 211.777 39.3554C212.129 38.4578 211.428 29.553 211.211 28.4465C210.994 27.34 207.584 26.8162 207.625 29.1293C207.645 30.3387 207.681 32.7783 207.71 34.8353C207.742 37.0482 206.942 39.1906 205.472 40.8415L192.297 39.9322L191.567 43.3369C191.567 43.3369 190.731 37.9517 188.799 35.9771C186.867 34.0025 184.098 34.3056 184.248 37.1718C184.398 40.0381 185.682 49.4726 185.682 49.4726C185.682 49.4726 185.327 53.9957 187.06 57.6241C189.981 63.7421 194.098 65.4195 200.983 63.7627H200.98Z" fill="#FFE3D0"/>
<path d="M206.345 41.6504L206.351 38.378C206.36 34.6848 206.108 30.9975 205.603 27.3397L205.228 24.6176C205.043 23.5464 204.011 22.8372 202.95 23.0521C201.947 23.2551 201.278 24.2056 201.422 25.2209L202.357 31.848L202.079 41.0206L206.345 41.6474V41.6504Z" fill="#FFE3D0"/>
<path d="M202.119 41.8712L201.066 32.5132C201.046 32.319 201.014 32.1277 200.976 31.9393L199.328 23.9203C199.055 22.8786 197.987 22.2576 196.952 22.5431L196.504 22.6667C195.448 22.958 194.844 24.0733 195.178 25.1209L196.703 31.651C196.826 32.1748 196.882 32.7133 196.87 33.2518L196.706 40.8824L202.119 41.8741V41.8712Z" fill="#FFE3D0"/>
<path d="M191.512 43.6427L192.064 37.1774C192.102 36.7242 192.093 36.2681 192.034 35.8149L191.064 28.2314C190.8 27.1514 191.498 26.0714 192.586 25.8683L192.973 25.7977C193.981 25.6123 194.958 26.248 195.198 27.2514L196.245 34.4141C196.266 34.5524 196.28 34.6878 196.292 34.8261L196.779 40.8794L191.512 43.6427Z" fill="#FFE3D0"/>
<path d="M118.579 102.239L117.828 102.68C116.74 103.322 116.538 105.002 117.377 106.432L135.141 136.799L139.83 134.035L122.066 103.669C121.227 102.236 119.667 101.597 118.579 102.236V102.239Z" fill="#D35440"/>
<path d="M139.827 134.041C139.827 134.041 139.829 134.047 139.832 134.047H139.829L141.02 141.154C141.049 141.333 140.891 141.43 140.747 141.315L135.146 136.807H135.144C135.144 136.807 135.144 136.804 135.141 136.801C135.146 136.81 135.108 135.295 136.821 134.285C138.533 133.276 139.835 134.047 139.829 134.038L139.827 134.041Z" fill="#FFBEAC"/>
<path d="M140.752 139.406L141.039 141.113C141.077 141.334 140.881 141.451 140.705 141.31L139.359 140.227L137.641 138.844C137.641 138.844 137.635 138.047 138.664 137.44C139.696 136.834 140.385 137.229 140.385 137.229L140.752 139.406Z" fill="black"/>
<path d="M121.692 111.424C121.692 111.424 129.117 112.677 131.211 115.42C133.307 118.162 136.471 121.658 134.735 123.748L132.999 125.837C132.999 125.837 135.372 129.395 133.237 131.14C131.099 132.885 134.806 137.258 129.032 136.393C123.258 135.531 115.405 132.926 115.833 125.781C116.264 118.636 118.185 110.594 121.689 111.424H121.692Z" fill="#FFE3D0"/>
</svg>
