<svg width="240" height="200" viewBox="0 0 240 200" fill="none" xmlns="http://www.w3.org/2000/svg">
<path d="M152.953 53.3085C152.953 53.3085 144.629 50.3512 137.983 53.4571C131.338 56.5629 125.388 84.0976 145.741 87.5972C145.741 87.5972 164.842 106.096 152.951 53.3085H152.953Z" fill="#233862"/>
<path d="M155.171 147.933C154.986 149.627 155.147 152.201 155.527 155.232C157.021 167.241 161.904 186.419 161.904 186.419L168.019 187.161C167.572 183.771 168.846 170.782 170.535 156.392C173.086 134.679 176.59 109.766 176.59 109.766C176.59 109.766 163.278 98.7373 155.435 101.783C147.591 104.833 156.094 139.515 155.173 147.929L155.171 147.933Z" fill="#F1DCCD"/>
<path d="M155.527 155.231C157.022 167.241 161.904 186.419 161.904 186.419L168.019 187.161C167.573 183.771 168.846 170.782 170.536 156.392C168.361 156.775 162.454 157.537 157.516 155.673C156.755 155.384 156.096 155.249 155.527 155.231Z" fill="#C5BFBF"/>
<path d="M161.127 20.634C161.127 20.634 164.35 19.0822 167.968 20.634C171.586 22.1859 174.22 28.7892 172.599 34.9556C170.978 41.1242 176.449 41.2275 173.915 46.1735C173.018 47.9277 161.125 49.4192 160.719 42.5878C160.468 38.3541 164.29 38.1454 163.175 33.5458C162.061 28.9463 161.125 20.6319 161.125 20.6319L161.127 20.634Z" fill="black"/>
<path d="M144.053 146.62C143.695 148.694 143.791 152.17 144.139 156.225C145.178 168.466 148.498 185.964 148.498 185.964L154.546 187.365C154.314 184.016 156.29 171.419 158.783 157.325C162.658 135.402 167.779 109.854 167.779 109.854C167.779 109.854 155.169 98.0201 147.152 100.579C139.136 103.136 145.49 138.277 144.055 146.62H144.053Z" fill="#FFE3D0"/>
<path d="M167.945 185.954C167.945 185.954 169.399 188.629 172.166 189.249C173.91 189.641 175.4 190.56 176.323 191.842C177.103 192.927 176.334 194.44 175.001 194.432L160.933 194.352C159.735 194.345 158.805 193.304 158.931 192.109C159.043 191.065 159.159 189.849 159.211 188.917C159.327 186.881 161.527 185.052 161.527 185.052C161.527 185.052 163.458 186.162 164.203 186.294C165.824 186.578 167.943 185.956 167.943 185.956L167.945 185.954Z" fill="black"/>
<path d="M146.232 90.4143C146.232 90.4143 137.083 107.252 135.338 130.011C135.338 130.011 159.901 139.765 181.675 131.511L177.909 91.258C177.909 91.258 162.368 96.8325 146.235 90.4121L146.232 90.4143Z" fill="#42923C"/>
<path d="M170.625 50.0879C170.625 50.0879 179.817 65.6255 181.672 78.292C181.672 78.292 177.202 84.34 175.383 80.0935C173.565 75.8469 160.512 53.1162 170.625 50.0879Z" fill="#FFB27D"/>
<path d="M168.876 22.5083C168.777 22.3447 164.663 15.8232 156.974 14.5232C150.745 13.4686 144.914 17.8808 143.956 24.1398C142.994 30.4289 143.975 38.5797 154.213 41.5155L168.876 22.5083Z" fill="black"/>
<path d="M166.995 50.5361L155.409 57.4343L152.482 49.2598C152.482 49.2598 153.824 46.281 154.215 41.5157C154.378 39.5119 154.374 37.1917 154.028 34.6455L164.103 39.0319C164.103 39.0319 163.927 39.951 163.856 41.2962C163.781 42.749 163.83 44.6969 164.356 46.5177C164.809 48.0803 165.612 49.5504 166.995 50.5361Z" fill="#FFE3D0"/>
<path d="M164.354 46.5176C158.797 46.7221 154.213 41.5156 154.213 41.5156L163.853 41.2939C163.778 42.7468 163.828 44.6946 164.354 46.5155V46.5176Z" fill="#F1DCCD"/>
<path d="M166.847 43.2481C166.847 43.2481 155.967 46.8834 151.589 38.3042C146.866 29.047 150.945 21.8238 154.673 21.1157C162.108 19.706 166.641 22.2909 168.15 25.2353C169.66 28.1797 172.852 41.2959 166.845 43.2481H166.847Z" fill="#FFE3D0"/>
<path d="M162.146 38.5604C162.146 38.5604 162.681 39.6753 165.56 38.8466C165.56 38.8466 167.978 38.1514 167.617 36.8751C167.617 36.8751 165.039 36.4834 162.146 38.5604Z" fill="white"/>
<path d="M181.673 78.2922C181.673 78.2922 182.547 90.2849 174.032 99.7336C174.032 99.7336 171.706 96.9291 172 96.0575C172.294 95.1879 175.627 81.8198 178.06 79.9172C180.494 78.0167 181.673 78.29 181.673 78.29V78.2922Z" fill="#F1DCCD"/>
<path d="M177.907 91.2579C175.245 92.2114 172.683 92.8657 170.248 93.2875C167.552 93.7567 165.011 93.9461 162.667 93.9397C160.522 93.9354 158.54 93.7675 156.752 93.5114C153.542 93.0508 150.948 92.2953 149.142 91.6453C147.263 90.9695 146.233 90.4099 146.233 90.4099C146.254 90.2657 146.254 90.0225 146.235 89.6953C146.186 88.8645 146.007 87.4935 145.752 85.8017C145.735 85.6898 145.717 85.5736 145.7 85.4595C145.612 84.8913 145.518 84.2908 145.417 83.6645C144.114 75.6815 141.747 63.622 141.747 63.622L140.998 58.0927C140.644 55.4583 141.919 52.9056 144.159 51.5884C144.406 51.4399 144.668 51.3107 144.94 51.1967C145.936 50.7813 146.823 50.4928 147.734 50.2561C149.086 49.901 150.486 49.6577 152.352 49.2703C152.382 49.2983 152.412 49.3263 152.444 49.3521C153.016 49.8622 153.737 50.4283 154.568 50.9578C156.588 52.2427 159.264 53.3059 162.044 52.7614C165.037 52.1738 165.628 50.5553 165.465 48.8291C166.225 48.9066 166.929 48.9884 167.577 49.0788C171.425 49.6018 174.467 52.5935 175.081 56.4311C175.535 59.2786 176.052 64.5432 176.567 71.1315C177.031 77.0396 177.491 84.0089 177.907 91.2557V91.2579Z" fill="#B06574"/>
<path d="M172.001 96.0596C172.001 96.0596 167.623 98.0871 169.111 100.25C170.599 102.411 173.573 101.12 174.032 99.7357C174.492 98.3518 172.001 96.0596 172.001 96.0596Z" fill="#F1DCCD"/>
<path d="M159.226 22.1341C159.226 22.1341 160.256 32.3663 150.575 35.9908C146.725 37.4329 144.72 21.8048 152.765 18.684C160.81 15.5631 168.744 19.2694 169.693 24.7234C170.642 30.1774 169.918 31.316 169.918 31.316C169.918 31.316 166.152 20.9374 159.226 22.132V22.1341Z" fill="black"/>
<path d="M168.277 98.4894C168.277 98.4894 173.726 98.4506 174.031 99.7334C174.336 101.018 172.629 105.037 168.644 103.636C164.659 102.234 164.76 101.361 164.76 101.361L168.277 98.4894Z" fill="#FFE3D0"/>
<path d="M147.208 20.7201C147.208 20.7201 143.985 18.9746 140.367 20.7201C136.749 22.4657 134.114 29.902 135.735 36.8475C137.357 43.7931 131.886 43.9093 134.419 49.4795C135.317 51.4553 147.21 53.1363 147.615 45.4417C147.867 40.6765 144.045 40.4397 145.159 35.2612C146.274 30.0827 147.21 20.7201 147.21 20.7201H147.208Z" fill="black"/>
<path d="M144.139 156.226C145.178 168.466 148.497 185.964 148.497 185.964L154.546 187.365C154.314 184.016 156.289 171.419 158.782 157.325C155.555 157.663 149.612 157.922 144.139 156.226Z" fill="#D5D5D5"/>
<path d="M154.717 185.954C154.717 185.954 156.17 188.629 158.938 189.249C160.681 189.641 162.171 190.56 163.095 191.842C163.874 192.927 163.105 194.44 161.772 194.432L147.704 194.352C146.506 194.345 145.576 193.304 145.703 192.109C145.815 191.065 145.931 189.849 145.982 188.917C146.098 186.881 148.299 185.052 148.299 185.052C148.299 185.052 150.231 186.162 150.974 186.294C152.595 186.578 154.714 185.956 154.714 185.956L154.717 185.954Z" fill="black"/>
<path d="M158.503 91.2472C158.503 91.2472 157.795 92.3578 156.749 93.5158C153.539 93.0552 150.945 92.2997 149.14 91.6497C145.938 83.8691 144.287 71.1553 144.287 71.1553L158.501 91.2472H158.503Z" fill="#985260"/>
<path d="M173.867 53.1748C173.867 53.1748 183.363 75.5913 182.987 81.607C182.614 87.6206 178.756 96.3741 177.375 96.8347L175.994 97.2953C175.994 97.2953 172.552 96.4473 172.469 94.3789C172.469 94.3789 175.256 81.493 174.59 79.5752C173.924 77.6575 173.869 53.1748 173.869 53.1748H173.867Z" fill="#B06574"/>
<path d="M176.835 78.2793C174.692 74.3535 173.258 62.5889 173.258 62.5889L175.628 86.1181C175.628 86.1181 177.9 80.2272 176.835 78.2772V78.2793Z" fill="#985260"/>
<path d="M168.333 90.4138C164.644 89.5766 159.07 76.9316 159.07 76.9316L153.324 83.4984L162.664 93.9415C165.009 93.9458 167.549 93.7585 170.246 93.2893L172.882 92.8093L175.626 86.1199L175.1 80.8898C176.002 90.0587 171.45 91.1219 168.33 90.4138H168.333Z" fill="#985260"/>
<path d="M161.87 52.7782C161.87 52.7782 155.562 49.8834 153.316 46.7646C153.316 46.7646 150.799 48.2132 150.582 49.8683C150.366 51.5234 158.518 54.315 161.87 52.7782Z" fill="white"/>
<path d="M164.63 47.3309C164.63 47.3309 164.285 51.6463 161.869 52.7784C161.869 52.7784 166.423 52.5051 167.986 49.1453C167.986 49.1453 166.245 47.2857 164.63 47.3309Z" fill="white"/>
<path d="M161.617 52.7654C161.617 52.5394 161.8 52.3564 162.025 52.3564C162.251 52.3564 162.433 52.5394 162.433 52.7654C162.433 52.9914 162.251 53.1743 162.025 53.1743C161.8 53.1743 161.617 52.9914 161.617 52.7654Z" fill="#2C3A64"/>
<path d="M156.994 72.1663C154.896 78.3091 150.632 83.2895 145.698 85.4612C145.61 84.893 145.515 84.2925 145.414 83.6662C149.734 81.6 153.46 77.1102 155.345 71.6003C157.215 66.1205 156.841 60.7569 154.316 56.8805C151.246 52.1691 146.29 51.6009 144.158 51.5901C144.405 51.4416 144.667 51.3125 144.94 51.1984C145.936 50.783 146.823 50.4946 147.733 50.2578C150.342 50.8884 153.49 52.4037 155.778 55.9227C158.6 60.2532 159.044 66.1764 156.996 72.1685L156.994 72.1663Z" fill="#2B478B"/>
<path d="M153.581 56.2656C153.581 56.2656 157.787 73.2108 157.959 80.2145C157.959 80.2145 167.705 97.276 168.278 98.4899C168.849 99.7038 164.761 101.361 164.761 101.361C164.761 101.361 152.535 88.29 150.178 82.7973C147.82 77.3045 141.716 60.4368 142.979 56.2634C144.804 50.2369 153.581 56.2634 153.581 56.2634V56.2656Z" fill="#FFE3D0"/>
<path d="M142.024 55.3157C141.23 59.8292 145.981 79.9082 148.476 85.1599C150.971 90.4116 155.411 96.7523 160.676 96.8319C160.676 96.8319 164.717 95.8526 165.161 92.8824C165.161 92.8824 162.862 84.9683 160.783 81.6042C158.705 78.2402 155.424 56.9386 153.346 55.6042C151.267 54.2697 142.821 50.8002 142.026 55.3157H142.024Z" fill="#B06574"/>
<path d="M86.9959 46.2634C86.9959 46.2634 74.839 41.3883 65.1361 46.5066C55.4333 51.6248 46.7439 97.0195 76.4665 102.79C76.4665 102.79 104.36 133.286 86.9959 46.2612V46.2634Z" fill="black"/>
<path d="M120.249 117.797L119.506 115.105C119.506 115.105 115.941 114.748 115.898 114.816L116.216 122.941C116.216 122.941 118.054 122.533 118.728 121.758L120.034 119.577C120.356 119.067 120.251 117.797 120.251 117.797H120.249Z" fill="#FFE3D0"/>
<path d="M111 48.2326C111 48.2326 115.357 48.0067 117.796 53.762C122.852 65.6902 120.656 91.4384 120.349 95.1254C120.349 95.1254 122.086 102.445 119.505 115.105L116.284 114.927C116.284 114.927 110.963 67.0784 111.597 62.1367C112.228 57.1949 111 48.2348 111 48.2348V48.2326Z" fill="#CFCFCF"/>
<path d="M74.668 189.035L76.317 194.999H90.241C90.241 194.999 94.3871 187.376 74.668 189.035Z" fill="#010101"/>
<path d="M104.527 189.035L106.176 194.999H120.1C120.1 194.999 124.246 187.376 104.527 189.035Z" fill="#010101"/>
<path d="M105.132 47.826L92.0693 54.5132L90.3516 45.8523C90.3516 45.8523 91.5625 42.5291 92.0521 37.2968C92.2625 35.0713 92.3441 32.4906 92.1401 29.6689L102.786 35.1294C102.786 35.1294 102.541 36.0764 102.371 37.484C102.232 38.6398 102.144 40.112 102.29 41.6251C102.504 43.9087 103.245 46.2914 105.132 47.8281V47.826Z" fill="#FFE3D0"/>
<path d="M115.871 101.242L89.4547 103.332C89.4547 103.332 86.1911 149.717 103.548 190.811L119.132 189.765L115.871 101.244V101.242Z" fill="#30722B"/>
<path d="M74.8807 103.788C74.8807 103.788 69.6889 130.404 73.3262 190.083H89.655L99.8731 117.559C100.202 115.439 104.367 112.488 104.367 112.488L104.53 104.307L74.8828 103.79L74.8807 103.788Z" fill="#42923C"/>
<path d="M75.0105 68.8411L76.5285 79.6415L72.3416 101.231C71.9701 103.149 73.3572 104.957 75.3003 105.088C83.2533 105.631 102.474 106.431 115.522 102.729C117.261 102.237 118.417 100.588 118.273 98.7821L115.978 69.9022L115.17 59.7411L114.341 49.3023C114.341 49.3023 110.363 46.8379 103.453 45.8564C103.556 47.4642 103.02 48.9364 99.7217 49.2937C95.8483 49.7392 92.9325 47.9808 90.7875 46.33C90.736 46.2417 90.4569 45.9468 90.3516 45.8564C87.9963 46.0803 85.2801 46.4935 82.9505 46.9584C82.5834 47.0316 74.2783 63.5744 74.2783 63.5744L75.0105 68.8411Z" fill="#B06574"/>
<path d="M72.3418 101.231C72.3418 101.231 109.309 82.2646 91.1527 51.2991C90.2831 49.814 88.8274 47.1021 86.9959 46.2627C85.2975 46.4177 84.9518 46.5059 83.5755 46.8352C85.4607 47.3604 88.1811 51.7942 89.6218 55.8169C92.3165 63.3392 98.9854 77.579 72.827 96.3365L72.3439 101.231H72.3418Z" fill="black"/>
<path d="M84.342 78.6984C84.7521 78.6683 88.1853 78.7974 88.1853 78.7974C88.1853 78.7974 89.8944 72.3491 94.6331 72.3491C94.6331 72.3491 96.849 72.1317 96.1683 73.931C95.8806 74.6929 95.4125 74.4196 94.6911 77.0368C93.9697 79.654 93.1881 80.3342 90.7619 81.7117L88.7135 82.267C88.7135 82.267 83.2641 78.778 84.3398 78.6984H84.342Z" fill="#FFE3D0"/>
<path d="M102.372 42.6024C98.376 43.1103 92.2052 37.4131 92.0527 37.2969C92.0527 37.2969 99.4453 37.355 102.372 37.4841C102.232 38.6399 102.226 41.0914 102.372 42.6045V42.6024Z" fill="#F1DCCD"/>
<path d="M105.532 39.8337C105.532 39.8337 89.3037 41.8159 88.9581 30.3548C88.6124 18.8937 95.3758 11.4703 99.8912 11.5564C108.894 11.7264 110.38 15.3725 111.423 19.1692C112.467 22.9659 113.004 39.0244 105.534 39.8337H105.532Z" fill="#FFE3D0"/>
<path d="M102.311 33.5469C102.311 33.5469 102.607 34.7458 105.585 34.5241C105.585 34.5241 108.086 34.339 107.994 33.0196C107.994 33.0196 105.555 32.1092 102.309 33.5469H102.311Z" fill="white"/>
<path d="M92.4867 37.3137C92.4867 37.3137 91.104 33.2329 91.2779 30.9428C91.2779 30.9428 88.0336 26.7953 89.9231 25.7686C91.8147 24.742 92.8346 27.1956 93.2661 26.7135C93.6999 26.2314 94.3762 18.0827 96.6715 18.3409C98.9667 18.5992 109.361 21.5651 113.084 18.3453C116.807 15.1254 105.874 2.22218 90.5651 7.07998C75.2561 11.9378 78.305 28.7926 92.4846 37.3137H92.4867Z" fill="black"/>
<path d="M83.0142 13.7713C83.0142 13.7713 82.3207 11.6986 83.0657 10.2178C83.0657 10.2178 83.1022 12.2582 83.901 13.1643C84.6997 14.0726 83.0142 13.7713 83.0142 13.7713Z" fill="#2C3A64"/>
<path d="M83.3338 12.3227C83.3338 12.3227 81.4401 12.1075 80.5469 13.5667C80.5469 13.5667 81.8802 12.6628 83.2286 13.6205L83.3338 12.3205V12.3227Z" fill="#2C3A64"/>
<path d="M82.9508 46.9582C82.9508 46.9582 79.8418 46.7818 74.2786 56.0863C71.307 61.0581 58.6304 84.667 65.1576 87.2326C71.6827 89.7981 84.8209 87.2153 88.1855 83.6446L86.281 78.1519C86.281 78.1519 77.175 78.5651 77.2287 78.0766C77.2824 77.5858 79.2706 72.9174 81.8686 69.2456C90.7599 56.6803 82.9486 46.9604 82.9486 46.9604L82.9508 46.9582Z" fill="#CFCFCF"/>
<path d="M99.7215 49.2913C99.7215 49.2913 93.323 46.4029 91.0772 43.2842C91.0772 43.2842 88.7583 44.6315 88.5414 46.2867C88.3245 47.944 96.3698 50.8259 99.7215 49.2892V49.2913Z" fill="#999999"/>
<path d="M102.72 43.9577C102.72 43.9577 102.273 48.4582 99.7227 49.2911C99.7227 49.2911 104.384 49.6247 105.947 46.2671C105.947 46.2671 104.335 43.9125 102.72 43.9577Z" fill="#999999"/>
<path d="M103.162 66.8432C103.162 67.3748 102.808 67.8074 102.372 67.8074C101.936 67.8074 101.582 67.3769 101.582 66.8432C101.582 66.3094 101.936 65.8789 102.372 65.8789C102.808 65.8789 103.162 66.3094 103.162 66.8432Z" fill="white"/>
<path d="M103.162 79.7621C103.162 80.2937 102.808 80.7263 102.372 80.7263C101.936 80.7263 101.582 80.2959 101.582 79.7621C101.582 79.2283 101.936 78.7979 102.372 78.7979C102.808 78.7979 103.162 79.2283 103.162 79.7621Z" fill="white"/>
<path d="M103.162 93.6957C103.162 94.2273 102.808 94.6599 102.372 94.6599C101.936 94.6599 101.582 94.2273 101.582 93.6957C101.582 93.1641 101.936 92.7314 102.372 92.7314C102.808 92.7314 103.162 93.1619 103.162 93.6957Z" fill="white"/>
<path d="M119.505 115.105L120.357 112.665L116.209 112.417L116.284 114.927L119.505 115.105Z" fill="#999999"/>
<path d="M88.0605 77.5792C88.0605 77.5792 88.7262 74.4734 88.5801 73.7481C88.4341 73.0206 89.8491 73.5716 89.8469 75.0761C89.8469 75.5496 89.4476 76.0037 89.4476 76.0037L88.7068 78.9804L88.0605 77.5792Z" fill="#FFE3D0"/>
<path d="M88.06 77.5791L84.3477 78.3905L85.024 82.9083H87.7788L86.2028 85.1531L86.9092 85.4523L90.7611 81.7116C90.7611 81.7116 88.702 79.5571 88.06 77.5791Z" fill="#999999"/>
</svg>
