<svg width="240" height="200" viewBox="0 0 240 200" fill="none" xmlns="http://www.w3.org/2000/svg">
<path d="M62.126 94.7451C62.126 94.7451 69.2289 96.4748 71.846 101.943C74.4631 107.41 84.6117 110.904 84.6117 110.904C84.6117 110.904 85.926 120.15 84.6117 119.99C83.2974 119.831 65.3203 115.075 62.8917 111.968C60.4631 108.861 62.1203 94.7451 62.1203 94.7451H62.126Z" fill="#B06574"/>
<path d="M117.549 16.8026C117.549 16.8026 128.429 20.2676 143.377 20.1652C149.652 20.1197 147.972 20.7114 148.669 23.9318C149.36 27.1579 140.857 30.3726 133.343 30.1393C125.829 29.9117 116.697 29.3939 115.309 26.6287C113.92 23.8635 117.549 16.7969 117.549 16.7969V16.8026Z" fill="#61CE70"/>
<path d="M97.0344 42.617C97.0344 42.617 86.8915 26.1396 90.6172 23.0102C97.2172 17.4627 113.657 14.5098 118.337 17.1555C119.766 17.9634 119 23.858 118.566 25.178C112.469 43.8005 128.137 43.8289 115.309 45.3197C102.48 46.8161 97.0344 42.617 97.0344 42.617Z" fill="#61CE70"/>
<path d="M101.149 12.415L98.4004 18.8786C98.4004 18.8786 100.046 21.3024 102.612 20.5058C105.178 19.7093 105.875 17.5927 105.875 17.5927L101.149 12.415Z" fill="#F1DCCD"/>
<path d="M101.395 12.7341C101.395 12.7341 100.892 12.7113 100.755 12.4382C100.624 12.1594 101.304 9.3316 101.572 9.20643C101.846 9.08125 102.372 9.1097 102.584 9.57057C102.801 10.0257 101.389 12.7341 101.389 12.7341H101.395Z" fill="#FFD8BC"/>
<path d="M112.138 9.51391C112.138 9.51391 112.246 11.3858 111.915 12.4384C111.589 13.491 110.092 13.8722 108.966 16.8935C108.738 17.508 106.241 19.7725 105.178 19.7156C103.664 19.6303 102.349 18.9304 101.961 18.5833C101.572 18.2363 100.492 17.5763 101.001 13.07C101.161 11.6589 104.058 4.90522 104.612 4.78005C105.166 4.65488 112.372 6.07162 112.132 9.5196L112.138 9.51391Z" fill="#FFE3D0"/>
<path d="M104.613 4.77407C104.613 4.77407 103.984 4.30182 103.047 5.65597C102.407 6.5834 101.887 10.3785 101.858 10.6459C101.83 10.919 101.744 11.4481 101.744 11.4481C101.744 11.4481 102.264 11.2148 102.55 10.8735C102.836 10.5321 103.236 8.25618 104.464 7.19789C105.693 6.1396 106.527 5.79822 105.938 5.1439C105.35 4.48958 104.613 4.77407 104.613 4.77407Z" fill="black"/>
<path d="M111.188 5.66176C109.514 4.02312 106.766 3.81828 105.611 4.10846C104.457 4.39864 104.223 5.57072 104.223 5.57072L105.251 6.20228C104.794 6.46401 104.543 6.80539 104.468 7.1923C103.628 11.6929 108.897 13.3657 111.806 13.4112C113.674 13.4396 114.023 11.8522 114.023 11.8522C114.023 11.8522 112.868 7.30609 111.188 5.66176Z" fill="black"/>
<path d="M102.611 9.29196C102.611 9.29196 104.554 9.5992 105.457 8.37022C106.36 7.13555 104.44 6.23657 104.223 6.3333C104.006 6.43002 102.611 9.29765 102.611 9.29765V9.29196Z" fill="black"/>
<path d="M143.377 20.1643V21.8371C143.377 21.8371 145.057 23.5668 145.88 23.7375C146.703 23.9082 148.84 23.9366 148.84 23.9366C148.84 23.9366 149.183 23.1173 148.497 22.9182C147.817 22.719 146.674 22.3037 146.674 22.3037L146.445 21.8371H152.96C152.96 21.8371 152.96 21.3592 152.617 21.2169C152.274 21.0747 149.4 20.1985 148.977 20.1416C148.554 20.0847 143.371 20.1643 143.371 20.1643H143.377Z" fill="#FFE3D0"/>
<path d="M194.148 188.251V35.2258C194.148 34.5974 193.637 34.0879 193.006 34.0879L79.6684 34.0879C79.0373 34.0879 78.5256 34.5974 78.5256 35.2258L78.5256 188.251C78.5256 188.88 79.0373 189.389 79.6684 189.389H193.006C193.637 189.389 194.148 188.88 194.148 188.251Z" fill="#D4D4D4"/>
<path d="M188.422 183.682V41.1367L85.6105 41.1367L85.6105 183.682H188.422Z" fill="black"/>
<path d="M187.074 182.344V41.1367L85.6114 41.1367L85.6114 182.344H187.074Z" fill="white"/>
<path d="M156.594 34.0874L156.405 33.1372L156.314 32.6877L156.017 31.1913L154.685 24.5116C154.354 22.8445 153.462 21.7236 152.462 21.7236H120.222C119.222 21.7236 118.331 22.8445 117.994 24.5116L116.662 31.1913L116.365 32.6877L116.274 33.1372L116.085 34.0874L115.6 36.5283H157.085L156.594 34.0874ZM136.337 29.456C135.342 29.456 134.531 28.6537 134.531 27.658C134.531 26.6623 135.342 25.8544 136.337 25.8544C137.331 25.8544 138.148 26.6623 138.148 27.658C138.148 28.6537 137.337 29.456 136.337 29.456Z" fill="#D4D4D4"/>
<path d="M156.595 34.0872H116.086L116.275 33.137L116.366 32.6875H156.315L156.406 33.137L156.595 34.0872Z" fill="black"/>
<path d="M155.657 82.4844H96.6055V92.3333H155.657V82.4844Z" fill="#DD9FB1"/>
<path d="M174.45 82.4844H164.496V92.3959H174.45V82.4844Z" fill="#DD9FB1"/>
<path d="M155.657 106.808H96.6055V116.657H155.657V106.808Z" fill="#DD9FB1"/>
<path d="M174.45 106.808H164.496V116.719H174.45V106.808Z" fill="#DD9FB1"/>
<path d="M155.657 131.132H96.6055V140.981H155.657V131.132Z" fill="#DD9FB1"/>
<path d="M174.45 131.132H164.496V141.043H174.45V131.132Z" fill="#DD9FB1"/>
<path d="M155.657 155.455H96.6055V165.304H155.657V155.455Z" fill="#DD9FB1"/>
<path d="M174.45 155.455H164.496V165.367H174.45V155.455Z" fill="#DD9FB1"/>
<path d="M156.623 47.9894L98.6465 59.1582L100.525 68.8278L158.502 57.6591L156.623 47.9894Z" fill="#DD9FB1"/>
<path d="M96.9267 23.4649C95.881 21.445 91.3781 20.8362 89.2924 24.6483C84.8467 32.7733 87.9495 42.9181 90.3724 48.0104C93.5152 54.6048 109.355 58.4055 109.355 58.4055C109.355 58.4055 110.972 52.767 110.858 52.3061C110.744 51.8453 97.4467 47.6235 98.9038 33.8145C99.401 29.1262 98.121 25.7692 96.9267 23.4649Z" fill="#61CE70"/>
<path d="M109.682 57.25C109.682 57.25 110.802 58.0068 112.247 58.4051C113.693 58.809 116.87 57.91 116.99 57.6426C117.104 57.3695 116.91 53.5346 116.345 53.2672C115.779 52.9998 110.864 52.3057 110.864 52.3057L109.687 57.25H109.682Z" fill="#FFE3D0"/>
<path d="M224.977 168.712H193.16C192.217 168.712 191.451 167.944 191.451 167.011C191.451 166.072 192.223 165.31 193.16 165.31H224.977C225.92 165.31 226.685 166.078 226.685 167.011C226.685 167.95 225.914 168.712 224.977 168.712Z" fill="#42923C"/>
<path d="M200.016 168.712H196.73V193.935H200.016V168.712Z" fill="black"/>
<path d="M221.588 168.712H218.303V193.935H221.588V168.712Z" fill="black"/>
<path d="M35.4062 122.893C35.4062 122.893 37.8348 125.248 39.8405 125.373C41.8463 125.493 43.7263 123.763 43.7263 123.763L40.7491 121.26L35.4062 122.893Z" fill="#F1DCCD"/>
<path d="M70.6917 190.874C69.9488 190.817 69.7945 191.431 67.5431 190.732C67.5031 190.726 67.4631 190.715 67.4288 190.697C67.4288 190.697 61.3088 159.091 57.2288 144.241C55.6345 160.957 53.3659 190.697 53.3659 190.697C53.3259 190.715 53.2917 190.726 53.2517 190.732C51.0002 191.426 50.8402 190.817 50.0974 190.874C49.7374 190.902 45.6002 157.543 47.5374 135.297L66.6517 134.5C69.7145 156.73 71.0745 190.897 70.6917 190.874Z" fill="#42923C"/>
<path d="M67.4759 189.929C67.4759 189.929 67.373 192.677 67.6245 193.553C67.8759 194.424 69.9045 194.549 70.4702 194.793C71.0359 195.038 72.2759 195.641 75.2588 195.994C76.0988 196.091 76.213 195.493 75.2016 194.975C71.8416 193.269 70.7616 190.378 70.7616 190.378L67.4816 189.929H67.4759Z" fill="black"/>
<path d="M53.3608 189.929C53.3608 189.929 53.4637 192.677 53.2123 193.553C52.9608 194.424 50.9323 194.549 50.3666 194.793C49.8008 195.038 48.5608 195.641 45.578 195.994C44.738 196.091 44.6237 195.493 45.6351 194.975C48.9951 193.269 50.0751 190.378 50.0751 190.378L53.3551 189.929H53.3608Z" fill="black"/>
<path d="M68.6974 133.703C68.6574 134.409 68.0689 134.813 67.3831 135.012C64.9203 135.74 57.6803 136.372 52.4974 136.463C49.3032 136.52 46.8917 136.378 46.846 135.928C46.566 133.015 46.2231 129.999 45.8574 127.001C44.0631 112.299 41.566 97.7216 42.8746 96.9876C48.6231 93.7616 55.8289 94.1143 62.1203 94.7459C64.606 94.9962 67.5831 101.943 67.4231 108.993C67.2174 117.88 68.9546 128.6 68.686 133.703H68.6974Z" fill="#B06574"/>
<path d="M52.1947 88.8168C52.1947 88.8168 51.6804 88.9476 51.4632 88.7143C51.2461 88.4754 51.0575 85.4257 51.2975 85.2208C51.5318 85.016 52.0689 84.8852 52.4289 85.2777C52.7889 85.6703 52.2004 88.8224 52.2004 88.8224L52.1947 88.8168Z" fill="#FFD8BC"/>
<path d="M54.4362 97.1348C53.739 96.9186 53.2019 96.4407 52.8762 96.0936C52.659 95.8603 52.5562 95.5474 52.5905 95.2288L53.1676 90.0796L59.6133 89.6699L59.7219 95.4222C58.8076 97.2259 56.2133 97.6868 54.4362 97.1348Z" fill="#F1DCCD"/>
<path d="M62.0004 82.3079C62.0004 82.3079 62.7433 83.3093 62.0404 85.1869C60.9376 88.1171 61.8462 87.4401 61.0804 90.6832C60.9204 91.3546 59.5604 93.9036 58.3833 94.5693C57.0004 95.3545 55.0519 94.74 54.5547 94.5067C54.0576 94.2791 52.7719 93.9434 51.9033 89.2551C51.629 87.7871 52.469 80.1174 52.989 79.8272C53.509 79.5313 61.189 78.7632 62.0004 82.3022V82.3079Z" fill="#FFE3D0"/>
<path d="M52.9886 79.8326C52.9886 79.8326 52.3257 79.7757 52.2171 80.9478C52.1086 82.1256 51.9714 86.2904 52.0229 86.5692C52.0743 86.8537 52.0514 87.4398 52.0514 87.4398C52.0514 87.4398 52.4172 87.4398 52.6057 87.013C52.7943 86.5863 52.6743 83.7415 53.5886 82.3076C54.4972 80.8738 55.2286 80.2707 54.44 79.7928C53.6514 79.3148 52.9943 79.8269 52.9943 79.8269L52.9886 79.8326Z" fill="#4A3D6D"/>
<path d="M17.3379 114.472L21.4007 103.059L75.915 122.517L71.8522 133.931L17.3379 114.472Z" fill="#FFBB00"/>
<path d="M18.4863 111.24L20.2463 106.29L74.7663 125.749L73.0006 130.699L18.4863 111.24Z" fill="#FFCC26"/>
<path d="M71.8516 133.93L75.9144 122.517L82.8573 128.184L85.7887 130.573L89.8001 133.845L84.6173 133.868L80.8287 133.89L71.8516 133.93Z" fill="#FFBF9D"/>
<path d="M84.6172 133.868L85.7886 130.573L89.8 133.845L84.6172 133.868Z" fill="#4A3D6D"/>
<path d="M19.4295 115.212L15.2067 113.721C13.4867 113.112 12.5838 111.229 13.1952 109.511L15.2581 103.724C15.2752 103.673 15.2981 103.622 15.321 103.571C15.8695 102.279 17.3438 101.625 18.6867 102.103L23.4981 103.804L20.5838 111.974L19.4295 115.217V115.212Z" fill="#E4E0FF"/>
<path d="M20.584 111.968L16.3668 110.478C14.6468 109.869 13.744 107.985 14.3554 106.267L15.3211 103.559C15.8697 102.267 17.344 101.613 18.6868 102.091L23.4983 103.792L20.584 111.963V111.968Z" fill="#EFEDFF"/>
<path d="M42.8817 96.9873C42.8817 96.9873 26.5217 109.197 26.6531 112.611C26.7846 116.025 29.4703 120.85 33.8303 123.399C33.8303 123.399 37.0246 124.73 39.2131 122.278C39.2131 122.278 35.5617 115.507 36.1388 114.933C37.2703 113.806 47.6188 109.141 47.6188 109.141C47.6188 109.141 51.2074 97.3002 42.8817 96.9873Z" fill="#B06574"/>
<path d="M53.1091 81.6535C53.1091 81.6535 53.2691 84.9877 55.8234 83.7416C56.6177 83.3547 57.5834 83.5937 58.092 84.3163C59.092 85.7387 59.7605 86.5182 61.0977 85.5851C62.4348 84.6463 61.9662 86.8312 63.6805 85.9948C64.772 85.4599 64.5262 84.3447 63.8577 83.6677C63.6691 83.4742 63.5834 83.2011 63.6005 82.9337C63.6748 81.8868 63.6119 79.4459 61.4634 79.0533C61.1434 78.9964 60.8577 79.0135 60.6005 79.0647C59.9891 79.1898 59.3605 78.985 58.9948 78.4786C58.3148 77.5455 56.9662 76.4246 54.6005 77.0448C49.3262 78.4274 51.5091 84.4756 52.0234 86.5751C52.3662 87.9862 53.1148 81.6535 53.1148 81.6535H53.1091Z" fill="black"/>
<path d="M204.902 70.7235C204.902 70.7235 202.531 76.6522 205.028 79.0874C207.525 81.5226 211.965 78.4615 212.342 78.086C212.72 77.7105 204.902 70.7178 204.902 70.7178V70.7235Z" fill="#FFE3D0"/>
<path d="M204.761 113.345C204.761 113.345 196.012 111.28 196.241 113.658C198.492 137.032 201.178 165.179 201.458 165.367C202.481 166.055 203.498 165.071 203.532 165.059C203.532 165.059 207.195 119.855 204.766 113.345H204.761Z" fill="#FFE3D0"/>
<path d="M216.955 114.625C216.955 114.625 208.641 111.212 208.492 113.596C207.006 137.032 205.195 165.247 205.441 165.475C206.338 166.317 207.498 165.503 207.538 165.497C207.538 165.497 218.326 121.436 216.961 114.625H216.955Z" fill="#FFE3D0"/>
<path d="M215.925 83.326C214.514 82.6717 212.708 81.9776 210.525 81.42C210.765 81.2663 204.211 81.6874 204.799 81.5565C202.331 82.1995 200.525 83.0074 199.142 83.7357C198.354 84.151 200.194 84.9931 200.302 85.875L204.4 104.185L197.902 109.658C197.902 110.426 199.165 111.058 200.159 111.052L204.771 111.041C206.428 110.904 207.274 110.233 207.582 109.578C208.005 110.102 208.817 110.563 210.171 110.671H214.782C215.777 110.671 215.177 112.77 215.177 112.002L211.697 104.054L216.228 86.5293C216.428 85.306 217.057 83.8495 215.925 83.326Z" fill="#B06574"/>
<path d="M201.766 90.3701C201.766 90.3701 196.229 105.146 184.029 132.798C184.029 132.798 198.864 145.663 226.995 136.741C226.995 136.741 223.269 111.576 213.275 99.1266L201.761 90.3701H201.766Z" fill="#B06574"/>
<path d="M179.823 72.493C178.486 70.0179 173.303 70.4731 173.303 70.0578C173.303 69.6424 173.388 69.2271 173.886 69.1417C174.388 69.0564 181.994 68.806 182.246 69.1417C182.497 69.4774 183.028 71.2412 183.028 71.2412C183.028 71.2412 180.228 73.2497 179.823 72.493Z" fill="#FFE3D0"/>
<path d="M209.143 65.5229C209.143 65.5229 202.143 66.6438 205.148 73.8868C208.291 81.4428 207.943 82.8425 206.091 89.4312C204.571 94.8421 203.863 101.124 209.663 103.229C215.514 105.351 226.634 99.667 223.954 89.6644C222.206 83.1269 221.034 84.5039 219.697 78.871C218.811 75.1442 219.508 72.3847 217.72 69.2269C216.074 66.3252 213.366 64.7719 209.148 65.5229H209.143Z" fill="black"/>
<path d="M201.171 163.489C201.171 163.489 196.062 164.445 195.936 164.906L195.811 165.367H204.108C204.108 165.367 204.319 165.111 204.108 164.155C203.896 163.199 203.771 162.988 203.605 162.988C203.439 162.988 201.171 163.483 201.171 163.483V163.489Z" fill="black"/>
<path d="M205.862 163.489C205.862 163.489 200.753 164.445 200.628 164.906L200.502 165.367H208.799C208.799 165.367 209.011 165.111 208.799 164.155C208.588 163.199 208.462 162.988 208.296 162.988C208.131 162.988 205.862 163.483 205.862 163.483V163.489Z" fill="black"/>
<path d="M201.767 90.3702C201.767 90.3702 186.944 88.8738 185.389 87.2465C183.835 85.625 179.447 72.4703 179.824 72.4931C180.201 72.5158 183.727 70.7634 184.029 71.0137C184.338 71.2641 188.852 82.7517 190.607 83.002C192.361 83.2524 204.401 81.6649 204.401 81.6649L201.767 90.3702Z" fill="#B06574"/>
<path d="M182.64 58.9229H172.686V68.8344H182.64V58.9229Z" fill="#DD9FB1"/>
</svg>
