<svg width="572" height="309" viewBox="0 0 572 309" fill="none" xmlns="http://www.w3.org/2000/svg">
<g clip-path="url(#clip0_4550_7475)">
<path d="M205 0L224.405 236.456H555.178L572 4.42796L205 0Z" fill="#57BE50"/>
<path d="M230.705 27.7773L245.417 215.118H531.346L548.877 27.7773H230.705Z" fill="#CA858E"/>
<path d="M230.705 27.7773H288.464L296.86 55.3343H546.294L531.346 215.118H245.417L230.705 27.7773Z" fill="#F0EBEB"/>
<path d="M486.566 36.5078C480.486 36.5078 480.47 45.929 486.566 45.929C492.662 45.929 492.662 36.5078 486.566 36.5078Z" fill="#00DBAB"/>
<path d="M511.374 36.5078C505.295 36.5078 505.279 45.929 511.374 45.929C517.47 45.929 517.47 36.5078 511.374 36.5078Z" fill="#F65B45"/>
<path d="M532.638 36.5078C526.558 36.5078 526.542 45.929 532.638 45.929C538.734 45.929 538.734 36.5078 532.638 36.5078Z" fill="#FCB237"/>
<path d="M373.316 236.455L377.16 284.425H406.945L411.592 236.455H373.316Z" fill="#232323"/>
<path d="M318.582 305.042C318.582 305.042 326.678 279.934 389.21 281.457C451.742 282.98 456.215 305.999 456.215 305.999L318.598 305.042H318.582Z" fill="#232323"/>
</g>
<g clip-path="url(#clip1_4550_7475)">
<path d="M362.929 296.608C362.652 295.662 362.386 294.716 362.109 293.759C360.847 294.325 359.565 293.996 358.293 293.862C358.734 293.883 359.165 293.893 359.606 293.913C360.478 293.944 361.278 294.037 361.975 293.399C361.063 291.394 359.924 289.451 359.288 287.353C358.222 283.856 354.96 281.882 353.647 278.571C352.847 276.545 351.955 274.458 350.099 273.059C349.299 272.411 348.376 272.144 347.36 272.031C335.924 270.776 324.632 268.586 313.309 266.581C307.063 265.522 300.879 264.102 294.664 262.899C282.13 260.472 269.536 258.683 256.736 258.652C253.731 258.704 250.726 258.673 247.721 258.683C244.418 258.611 241.187 259.218 237.936 259.67C223.393 261.706 209.895 266.344 198.532 276.021C195.66 278.468 192.552 280.802 190.973 284.463C190.993 285.296 191.598 285.666 192.214 285.965C197.27 288.463 200.737 292.525 203.372 297.399C203.844 298.274 204.275 299.199 205.393 299.425C206.972 299.703 208.501 299.425 210.019 299.034C221.988 295.919 234.223 294.87 246.521 294.602C255.218 294.417 263.905 295.209 272.551 296.063C283.628 297.163 294.705 298.181 305.792 299.178C307.709 299.178 309.586 299.641 311.504 299.641C327.791 299.641 344.078 299.641 360.365 299.631C361.422 299.631 362.529 299.744 363.391 298.88C363.237 298.119 363.083 297.358 362.929 296.587V296.608Z" fill="#DBDBDB"/>
<path d="M161.824 260.823C152.296 256.278 142.009 255.188 131.691 254.592C122.132 254.036 112.614 254.88 103.117 256.165C86.2661 258.438 69.7843 262.551 53.1692 265.996C42.4616 268.217 31.7028 270.15 20.9029 271.888C19.4568 272.125 18.0209 272.227 16.7697 273.06C15.5287 274.068 15.1492 275.611 14.3902 276.917C13.1902 278.953 12.4723 281.616 10.7287 282.901C8.78003 284.341 8.1544 286.058 7.44672 288.022C6.46212 290.747 5.41598 293.442 4.40061 296.156C5.0365 296.763 5.82623 296.578 6.57494 296.599C6.88262 296.599 7.19031 296.609 7.498 296.619C6.95442 296.619 6.41084 296.619 5.86725 296.619C5.18008 296.619 4.48266 296.588 3.91856 297.092C3.76472 297.689 3.61088 298.295 3.45703 298.892C4.52368 299.92 5.88777 299.663 7.14929 299.642C19.7953 299.519 32.4412 300.043 45.077 299.18C52.0615 298.604 59.0665 298.264 66.051 297.833C73.4355 297.38 80.8098 296.763 88.1943 296.239C98.389 295.498 108.594 294.902 118.809 294.573C125.148 294.367 131.465 295.015 137.783 295.447C144.665 295.91 151.445 296.876 158.039 298.984C158.809 299.128 159.568 299.375 160.368 299.18C161.363 298.717 161.701 297.73 162.152 296.866C166.009 289.452 172.019 285.174 180.367 284.269C181.526 284.146 182.849 284.228 183.608 282.984C183.608 281.863 183.106 280.906 182.593 279.971C177.793 271.292 170.706 265.07 161.834 260.834L161.824 260.823Z" fill="#DBDBDB"/>
<path d="M264.232 203.617C270.909 198.887 278.037 194.928 285.288 191.205C291.524 188.007 297.873 185.056 304.17 181.991C306.498 181.117 308.827 180.233 311.514 179.215C310.057 184.459 308.683 189.354 307.339 194.249C306.878 195.915 305.339 195.524 304.283 195.709C297.001 196.984 289.77 198.486 282.581 200.193C276.427 201.653 270.335 203.36 264.366 205.478C263.73 205.704 263.125 206.116 262.386 205.92C262.181 204.491 263.894 204.625 264.232 203.627V203.617Z" fill="#C5C4C4"/>
<path d="M264.232 203.617C264.355 204.975 262.519 204.748 262.386 205.91C261.381 206.527 260.355 207.124 259.176 207.329C260.499 205.592 262.489 204.769 264.232 203.627V203.617Z" fill="#A6A099"/>
<path d="M204.972 299.026C206.53 298.933 208.11 298.995 209.638 298.522C236.499 297.699 263.36 298.368 290.222 298.172C294.263 298.141 298.304 298.306 302.324 298.656C303.37 298.748 304.457 298.841 305.503 298.532C323.493 299.406 341.503 298.758 359.503 298.954C360.795 298.964 362.098 298.923 363.39 298.902C365.892 299.252 367.123 300.383 366.99 302.193C366.856 304.013 365.513 304.959 362.959 304.959C312.96 304.959 262.95 304.959 212.951 304.98C211.997 304.98 210.951 304.63 210.089 305.401C208.346 305.7 206.592 305.679 204.859 305.35C203.464 305.083 202.161 304.548 202.315 302.717C202.459 302.234 202.695 301.874 203.259 302.162C205.115 303.118 205.177 302.131 204.838 300.712C204.705 300.136 204.459 299.56 204.961 299.036L204.972 299.026Z" fill="#57BE50"/>
<path d="M3.45583 298.882C16.1018 298.82 28.758 299.376 41.3938 298.532C42.6861 298.45 43.9783 298.512 45.2706 298.502C48.8501 298.975 52.4295 298.43 55.9987 298.358C59.2807 298.296 62.5627 298.173 65.8447 298.173C94.8084 298.131 123.772 298.173 152.736 298.121C154.715 298.121 156.643 298.707 158.623 298.481L160.366 298.985C160.756 299.468 160.52 299.972 160.438 300.476C160.336 301.124 159.946 301.936 160.746 302.265C161.618 302.625 161.782 301.689 162.11 301.155C162.52 300.497 162.654 299.499 163.813 299.787C164.972 300.579 165.32 301.689 164.889 302.975C164.377 304.476 163.248 305.319 161.669 305.474C159.413 305.69 157.115 305.35 154.89 305.936C154.356 304.548 153.156 304.98 152.161 304.98C114.367 304.97 76.583 304.97 38.7887 304.97C27.2401 304.97 15.6813 304.97 4.13274 304.97C2.90199 304.97 1.66098 305.052 0.758429 303.972C-0.000534706 303.078 -0.20566 302.08 0.194334 300.97C0.748173 299.437 1.98918 299.005 3.44557 298.903L3.45583 298.882Z" fill="#57BE50"/>
<path d="M190.306 284.568C190.614 284.63 190.931 284.691 191.239 284.753C197.752 287.643 201.854 292.866 204.983 299.036C205.116 299.54 205.188 300.065 205.383 300.538C205.783 301.504 206.008 302.502 205.003 303.16C203.783 303.962 203.331 302.769 202.736 302.06C200.326 294.872 196.142 289.062 188.583 287.067C178.06 284.29 167.506 289 163.301 299.818C162.983 300.579 162.675 301.35 162.337 302.101C161.978 302.893 161.496 303.664 160.481 303.242C159.588 302.872 159.414 302.029 159.67 301.134C159.875 300.414 160.132 299.705 160.368 298.985C162.952 293.35 166.532 288.65 172.265 285.864C175.773 284.157 179.506 283.581 183.332 283.375C183.896 283.961 184.583 283.673 185.239 283.663C186.183 283.735 187.126 283.817 188.07 283.889C188.819 284.126 189.557 284.352 190.306 284.578V284.568Z" fill="#B06574"/>
<path d="M247.238 259.302C250.459 258.592 253.669 258.592 256.889 259.302C253.669 259.302 250.459 259.302 247.238 259.302Z" fill="#CAC8B4"/>
<path d="M130.131 287.879C130.1 285.585 130.07 283.292 130.039 281.009C129.608 278.716 130.265 276.392 129.834 274.109C129.803 273.76 129.783 273.42 129.752 273.071C129.342 272.618 129.311 272.156 129.69 271.662C129.7 268.803 129.721 265.945 129.731 263.086C129.916 262.89 130.152 262.798 130.418 262.818C137.536 262.746 144.541 263.651 151.423 265.472C152.305 265.708 153.218 265.852 153.967 266.448C154.172 266.644 154.223 266.88 154.131 267.158C153.957 276.135 153.782 285.123 153.598 294.604C151.936 293.38 150.685 292.455 149.423 291.529C148.439 291.221 147.557 290.717 146.757 290.079C146.5 289.915 146.275 289.719 146.039 289.534C140.9 285.524 142.839 285.729 137.331 288.989C136.818 289.38 136.182 289.462 135.598 289.678C133.721 290.1 132.377 291.55 130.511 292.352C129.936 291.365 130.388 290.275 130.121 289.318C129.824 288.835 129.793 288.362 130.152 287.889L130.131 287.879Z" fill="#B06574"/>
<path d="M205.895 304.888C204.213 304.641 202.367 304.59 202.736 302.05C203.228 301.392 202.972 300.703 202.705 300.096C201.044 296.374 199.044 292.888 195.844 290.234C191.772 286.851 187.126 285.556 181.834 285.833C173.731 286.265 167.885 290.121 163.875 297.021C163.403 297.844 162.829 298.749 163.301 299.818C164.306 300.651 164.983 301.659 164.357 302.955C163.732 304.261 162.685 305.011 161.106 304.919C159.609 304.826 158.091 304.919 156.583 304.898C155.793 304.898 155.044 304.898 154.891 305.937C155.393 308.199 157.003 309.001 159.096 309.001C174.675 309.022 190.254 309.022 205.834 309.001C208.162 309.001 209.741 307.891 210.09 305.412C208.787 304.425 207.29 305.114 205.895 304.909V304.888Z" fill="#42923C"/>
<path d="M282.93 296.384C267.187 294.791 251.453 293.186 235.597 294.379C226.838 295.037 218.121 296.086 209.639 298.513C210.275 299.161 211.085 298.894 211.813 298.894C242.161 298.904 272.51 298.904 302.858 298.894C303.74 298.894 304.704 299.192 305.504 298.523C297.976 297.814 290.448 297.145 282.92 296.384H282.93Z" fill="#42923C"/>
<path d="M158.624 298.482C157.014 297.998 155.435 297.422 153.794 297.042C141.712 294.255 129.414 293.69 117.107 293.977C93.1072 294.543 69.2204 297.165 45.2617 298.512C45.9694 299.201 46.8617 298.913 47.6719 298.913C83.9381 298.924 120.194 298.913 156.46 298.913C157.188 298.913 158.009 299.191 158.614 298.492L158.624 298.482Z" fill="#42923C"/>
<path d="M130.162 263.003C131.075 260.895 132.993 261.132 134.767 261.039C141.465 261.409 148.08 262.324 154.48 264.422C155.064 265.317 155.126 266.109 154.028 266.664C148.603 265.337 143.126 264.309 137.567 263.661C135.588 263.425 133.629 263.466 131.67 263.528C131.034 263.548 130.47 263.754 130.162 263.003Z" fill="#9C5362"/>
<path d="M311.175 272.73C302.919 270.981 294.621 269.439 286.324 267.866C276.816 266.066 267.217 264.925 257.555 264.441C243.986 263.763 230.838 266.107 218.12 270.838C214.212 272.287 210.356 273.892 206.838 276.164C210.602 274.92 214.253 273.429 217.997 272.154C227.925 268.781 238.078 266.549 248.601 266.19C259.627 265.809 270.488 267.115 281.35 268.863C295.996 271.218 310.539 274.087 325.134 276.73C327.923 277.234 330.672 278.139 333.595 277.851C326.129 276.123 318.682 274.293 311.175 272.709V272.73Z" fill="black"/>
<path d="M206.787 284.618C232.397 273.789 258.93 273.686 285.842 277.975C258.817 272.391 232.202 271.578 206.787 284.618Z" fill="black"/>
<path d="M215.658 289.676C236.191 283.208 257.052 284.01 277.996 286.746C257.001 282.91 236.109 281.409 215.658 289.676Z" fill="black"/>
<path d="M132.542 260.719C124.911 260.698 117.301 260.719 109.68 261.521C102.337 262.292 95.0447 263.351 87.7833 264.657C79.0141 266.231 70.4194 268.586 61.7221 270.488C57.5683 271.393 53.4863 272.596 49.3633 273.655C49.8864 273.984 50.3479 274.025 50.7786 273.923C65.281 270.447 79.8347 267.321 94.6139 265.172C106.275 263.475 117.947 262.765 129.711 263.084C129.854 263.053 130.008 263.033 130.152 263.012C131.547 262.015 133.352 262.015 134.757 261.048C134.07 260.554 133.28 260.729 132.531 260.729L132.542 260.719Z" fill="black"/>
<path d="M128.112 279.332C119.342 278.684 110.563 279.116 101.815 279.733C94.471 280.247 87.1378 281.131 79.8559 282.314C75.0457 283.095 70.2047 283.651 65.4766 284.946C86.9122 282.221 108.327 279.208 130.03 281.008C130.081 278.704 129.383 279.424 128.112 279.332Z" fill="black"/>
<path d="M74.2969 291.413C92.8505 289.408 111.445 288.483 130.101 289.305C130.101 288.832 130.122 288.359 130.122 287.876C111.414 287.485 92.7582 287.897 74.2969 291.403V291.413Z" fill="black"/>
<path d="M129.742 273.068C129.721 272.606 129.7 272.132 129.68 271.659C128.818 271.269 127.895 271.31 126.983 271.31C117.824 271.279 108.726 272.122 99.6599 273.192C94.3677 273.819 89.0959 274.714 83.8242 275.495C99.1061 273.973 114.337 271.927 129.752 273.068H129.742Z" fill="black"/>
<path d="M154.49 264.432C154.583 265.223 154.47 265.984 154.039 266.673C154.07 266.828 154.101 266.992 154.131 267.146C162.377 269.121 169.198 273.625 175.444 279.188C170.244 271.712 162.921 267.29 154.501 264.432H154.49Z" fill="black"/>
<path d="M145.936 289.461C142.993 288.782 140.06 287.908 137.003 288.741C136.347 288.772 135.916 289.142 135.588 289.666C140.203 290.283 144.808 290.9 149.424 291.517C148.695 290.921 147.957 290.324 147.229 289.728C146.736 289.944 146.377 289.563 145.947 289.461H145.936Z" fill="black"/>
<path d="M298.488 183.258C293.781 184.646 286.611 186.867 277.996 189.952C249.022 200.328 228.264 207.999 210.889 225.892C206.654 230.252 200.695 237.203 195.085 247.291C194.449 228.689 192.059 213.552 189.854 202.806C187.946 193.531 186.49 186.579 183.044 177.273C178.223 164.285 171.434 152.316 163.321 141.076C159.003 135.091 154.541 129.24 150.018 123.42C148.962 122.062 147.957 121.456 146.213 122.577C138.655 127.43 131.034 132.171 123.424 136.932C117.568 140.593 111.691 144.233 105.824 147.884C109.814 151.565 113.793 155.267 117.68 159.051C123.27 164.501 128.798 170.013 134.07 175.792C138.09 180.204 142.213 184.533 146.121 189.037C154.562 198.755 162.654 208.76 170.008 219.342C175.341 227.013 180.582 234.756 184.49 243.312C187.515 249.934 189.464 256.814 190.244 264.043C190.305 264.608 190.038 265.544 190.859 265.657C190.859 265.667 190.859 265.678 190.838 265.698C190.838 270.5 190.838 275.303 190.838 280.465C195.115 274.562 199.136 269.02 203.156 263.477C204.151 263.559 204.531 262.521 205.023 261.883C212.223 252.443 219.853 243.363 227.874 234.633C237.299 224.38 247.597 215.064 259.217 207.29L259.186 207.32C260.909 206.035 262.868 205.13 264.622 203.896C276.622 196.081 289.268 189.479 302.304 183.607C302.529 183.505 303.134 183.165 303.986 182.733C307.011 181.191 309.606 180.019 311.534 179.206C308.673 180.07 304.109 181.469 298.509 183.248L298.488 183.258Z" fill="#F7F7F7"/>
<path d="M179.505 259.733C178.9 258.407 178.162 257.152 177.229 256.021C176.89 255.723 176.552 255.414 176.223 255.106C176.131 254.849 176.018 254.602 175.885 254.376C169.813 244.432 162.675 235.31 154.747 226.837C149.393 221.12 143.855 215.577 137.834 210.549C129.321 203.433 120.44 196.82 111.332 190.517C108.881 188.83 106.44 187.134 103.989 185.447C103.989 185.643 103.958 185.807 103.886 185.941C102.163 184.049 100.183 182.537 97.5681 182.033C97.3219 182.331 97.1373 182.702 96.8399 182.907C93.322 185.262 89.9579 187.823 86.5631 190.352C78.953 196.008 72.03 202.445 65.107 208.872C58.1533 215.33 51.7226 222.323 45.1996 229.213C44.7791 229.665 44.3278 230.087 44.3381 230.765C44.8304 231.465 45.5893 231.68 46.3585 231.65C48.5944 231.557 50.7585 232.102 52.9636 232.267C61.784 232.894 70.5839 233.727 79.394 234.55C89.2605 235.465 99.1065 236.493 108.942 237.758C122.132 239.455 135.209 241.645 148.029 245.213C156.911 247.691 165.516 250.746 172.89 256.556C174.644 257.934 176.131 259.579 177.721 261.132C178.254 261.656 178.952 262.479 179.649 262.016C180.531 261.43 179.854 260.473 179.526 259.743L179.505 259.733Z" fill="#F7F7F7"/>
<path d="M186.08 281.759C185.834 280.063 185.69 278.335 184.87 276.772C184.542 276.309 184.316 275.785 184.07 275.271C182.388 267.569 177.885 261.563 171.916 256.596C166.696 252.247 160.439 249.748 154.06 247.527C140.983 242.961 127.445 240.524 113.794 238.621C106.635 237.624 99.4658 236.75 92.2557 236.195C84.8301 235.619 77.4251 234.775 70.0098 234.056C67.1073 233.973 64.2355 233.284 61.3022 233.531C61.292 233.552 61.2715 233.562 61.2612 233.583C61.2202 233.49 61.1792 233.387 61.1176 233.284C59.1894 232.554 57.1279 232.606 55.128 232.318C54.1023 232.174 53.0357 231.835 52.1126 232.657C52.0921 233.14 51.887 233.531 51.5485 233.871C45.1589 240.38 39.2205 247.29 33.1693 254.098C27.6207 260.35 22.0002 266.53 16.7695 273.06C25.4668 272.083 34.0719 270.479 42.6358 268.782C57.5587 265.82 72.4098 262.509 87.3224 259.445C97.5479 257.347 107.876 255.877 118.296 255.27C127.209 254.756 136.142 255.177 144.983 256.576C153.824 257.974 162.173 260.638 169.455 266.108C175.547 270.684 180.521 276.135 183.321 283.353C183.731 284.392 184.511 284.186 185.3 283.939C186.1 283.394 186.193 282.603 186.07 281.749L186.08 281.759Z" fill="#F7F7F7"/>
<path d="M189.916 272.217C189.752 271.548 189.557 270.89 189.403 270.222C189.516 261.46 187.69 253.049 184.275 244.976C179.188 232.955 171.403 222.621 163.722 212.245C157.455 203.772 150.901 195.514 143.968 187.586C137.886 180.634 131.794 173.683 125.137 167.256C122.809 164.798 120.522 162.31 117.927 160.119C117.958 160.058 117.999 160.006 118.02 159.934C116.327 157.096 113.702 155.245 111.086 153.394C111.056 153.374 110.953 153.446 110.881 153.477C110.594 154.032 110.163 154.443 109.609 154.741C100.502 159.677 92.1225 165.714 83.8047 171.832C84.4611 172.84 85.497 173.354 86.4611 173.971C102.256 184.038 117.907 194.311 132.799 205.715C142.553 213.191 151.404 221.603 159.424 230.878C167.445 240.154 174.706 250.015 180.501 260.874C184.039 267.507 187.188 274.325 187.485 282.058C187.516 282.839 187.424 283.857 188.706 283.868C189.567 283.394 189.526 282.5 189.68 281.698C190.265 278.551 190.152 275.384 189.926 272.217H189.916Z" fill="#F7F7F7"/>
<path d="M348.991 270.817C341.965 260.421 334.816 250.107 328.027 239.566C325.945 236.337 323.37 234.764 319.822 233.88C310.755 231.628 301.637 229.787 292.407 228.337C287.084 227.504 281.751 226.496 276.417 226.291C268.828 225.993 261.197 225.777 253.607 227.052C245.525 228.419 237.751 230.63 230.49 234.486C229.905 234.795 226.572 237.181 226.449 237.222C225.895 237.746 225.3 238.23 224.808 238.805C220.623 243.772 216.357 248.667 212.305 253.737C207.311 259.999 202.408 266.344 198.029 273.069C195.095 276.648 192.552 280.504 190.326 284.555C190.593 284.864 190.901 284.915 191.259 284.74C191.916 283.815 192.48 282.807 193.239 281.974C198.931 275.815 205.516 270.93 213.157 267.393C223.997 262.375 235.443 260.071 247.259 259.29C250.479 258.93 253.689 258.94 256.91 259.29C261.71 259.248 266.458 259.845 271.238 260.143C280.899 260.739 290.273 262.971 299.771 264.524C304.335 265.274 308.745 266.776 313.391 267.136C315.309 267.907 317.391 267.948 319.391 268.328C329.586 270.262 339.822 271.928 350.129 273.059C349.996 272.195 349.493 271.527 349.021 270.827L348.991 270.817Z" fill="#F7F7F7"/>
<path d="M147.219 289.73C144.573 290.296 142.081 289.031 139.476 289.031C138.655 289.031 137.824 288.846 137.004 288.743C138.153 287.468 139.814 286.974 141.137 285.956C141.978 285.308 142.553 285.997 143.127 286.45C144.501 287.529 145.855 288.64 147.219 289.73Z" fill="#DBDBDB"/>
<path d="M83.8036 171.832C120.798 192.275 192.417 247.208 186.448 284.258C183.925 281.245 184.51 272.679 180.5 267.774C159.7 232.246 67.5577 237.891 43.9785 231.711C89.701 233.14 162.418 239.547 179.556 261.882C154.767 215.597 114.962 196.954 83.8036 171.832Z" fill="#A6A099"/>
<path d="M203.167 263.454C219.177 242.991 236.592 221.365 259.207 207.298C215.003 237.829 184.029 302.376 189.198 280.339C193.885 229.509 132.143 176.88 109.548 152.231C108.04 151.429 103.476 145.743 108.174 149.249C149.25 189.076 195.301 237.325 191.372 277.049C189.742 284.72 198.962 265.223 203.167 263.454Z" fill="#A6A099"/>
</g>
<defs>
<clipPath id="clip0_4550_7475">
<rect width="367" height="306" fill="white" transform="translate(205)"/>
</clipPath>
<clipPath id="clip1_4550_7475">
<rect width="367" height="187" fill="white" transform="translate(0 122)"/>
</clipPath>
</defs>
</svg>
