<svg width="24" height="24" viewBox="0 0 24 24" fill="none" xmlns="http://www.w3.org/2000/svg">
<path fill-rule="evenodd" clip-rule="evenodd" d="M11.1517 2.75173C11.3768 2.52677 11.6819 2.40039 12.0001 2.40039C12.3183 2.40039 12.6235 2.52677 12.8485 2.75173L15.5445 5.43842C15.5638 5.45763 15.5967 5.44397 15.5967 5.41675C15.5967 5.07893 15.8705 4.80508 16.2083 4.80508H17.398C17.7294 4.80508 17.998 5.07371 17.998 5.40508V7.81837C17.998 7.87141 18.0191 7.92228 18.0566 7.95979L21.2485 11.1517C21.4163 11.3196 21.5306 11.5334 21.5768 11.7661C21.6231 11.9988 21.5994 12.2401 21.5085 12.4593C21.4177 12.6786 21.264 12.866 21.0667 12.9978C20.8694 13.1297 20.6374 13.2001 20.4001 13.2001H19.2001V20.4001C19.2001 20.7184 19.0737 21.0236 18.8487 21.2487C18.6236 21.4737 18.3184 21.6001 18.0001 21.6001H14.4001C14.0819 21.6001 13.7767 21.4737 13.5516 21.2487C13.3266 21.0236 13.2001 20.7184 13.2001 20.4001V16.8001C13.2001 16.4819 13.0737 16.1767 12.8487 15.9516C12.6236 15.7266 12.3184 15.6001 12.0001 15.6001C11.6819 15.6001 11.3766 15.7266 11.1516 15.9516C10.9266 16.1767 10.8001 16.4819 10.8001 16.8001V20.4001C10.8001 20.7184 10.6737 21.0236 10.4487 21.2487C10.2236 21.4737 9.91839 21.6001 9.60013 21.6001H6.00013C5.68187 21.6001 5.37665 21.4737 5.15161 21.2487C4.92656 21.0236 4.80013 20.7184 4.80013 20.4001V13.2001H3.60013C3.36283 13.2001 3.13088 13.1297 2.93358 12.9978C2.73629 12.866 2.58253 12.6786 2.49172 12.4593C2.40092 12.2401 2.37715 11.9988 2.42343 11.7661C2.46972 11.5334 2.58396 11.3196 2.75173 11.1517L11.1517 2.75173Z" fill="var(--color-primary)"/>
</svg>
