<svg width="91" height="104" viewBox="0 0 91 104" fill="none" xmlns="http://www.w3.org/2000/svg">
<g clip-path="url(#clip0_2788_16520)">
<path d="M45.5003 61.9088C50.9489 61.9088 55.3659 57.4698 55.3659 51.9939C55.3659 46.5181 50.9489 42.0791 45.5003 42.0791C40.0517 42.0791 35.6348 46.5181 35.6348 51.9939C35.6348 57.4698 40.0517 61.9088 45.5003 61.9088Z" fill="#DD9FB1"/>
<path d="M45.4988 102.665C52.8871 102.665 58.8765 79.9787 58.8765 51.9937C58.8765 24.0086 52.8871 1.32227 45.4988 1.32227C38.1105 1.32227 32.1211 24.0086 32.1211 51.9937C32.1211 79.9787 38.1105 102.665 45.4988 102.665Z" stroke="#42923C" stroke-width="2" stroke-miterlimit="10"/>
<path d="M89.1588 77.3279C92.853 70.8975 76.2984 54.3415 52.183 40.3489C28.0677 26.3564 5.52363 20.2261 1.82948 26.6565C-1.86467 33.0869 14.69 49.643 38.8053 63.6355C62.9206 77.628 85.4647 83.7583 89.1588 77.3279Z" stroke="#42923C" stroke-width="2" stroke-miterlimit="10"/>
<path d="M38.8177 40.3602C62.9292 26.3605 85.4753 20.2397 89.1716 26.6645C92.8679 33.0894 76.3069 49.6537 52.1954 63.6403C28.0708 77.6268 5.52473 83.7608 1.82843 77.336C-1.86787 70.9111 14.6931 54.3468 38.8046 40.3602L38.8177 40.3602Z" stroke="#61CE70" stroke-width="2" stroke-miterlimit="10"/>
<path d="M45.5 42.0791L45.5 61.9088C50.9458 61.9088 55.3656 57.4669 55.3656 51.9939C55.3656 46.521 50.9458 42.0791 45.5 42.0791Z" fill="#DD9FB1"/>
</g>
<defs>
<clipPath id="clip0_2788_16520">
<rect width="91" height="104" fill="white"/>
</clipPath>
</defs>
</svg>
