<svg width="86" height="86" viewBox="0 0 86 86" fill="none" xmlns="http://www.w3.org/2000/svg">
<rect width="86" height="86" fill="#7C509A"/>
<path d="M56.4459 20.5238C48.2512 18.9589 39.7412 18.9589 31.5465 20.5238C27.9219 21.3063 23.3517 25.6882 22.5637 29.1311C21.1454 35.8603 21.1454 42.7461 22.5637 49.4754C23.5093 52.9183 28.0794 57.3002 31.5465 58.0827C31.7041 58.0827 31.8616 58.2392 31.8616 58.3957V68.2549C31.8616 68.7244 32.492 69.0373 32.8072 68.5679L37.535 63.7165C37.535 63.7165 41.3171 59.8041 41.9475 59.1781C41.9475 59.1781 42.1051 59.0217 42.2627 59.0217C46.9904 59.1782 51.8758 58.7087 56.6035 57.9262C60.2281 57.1437 64.7983 52.7618 65.5863 49.3189C67.0046 42.5896 67.0046 35.7039 65.5863 28.9746C64.6407 25.6882 60.0706 21.3063 56.4459 20.5238ZM56.6035 49.9449C55.8156 51.5099 54.87 52.7618 53.2941 53.5443C52.8213 53.7008 52.3486 53.8573 51.8758 54.0138C51.2454 53.8573 50.7726 53.7008 50.2999 53.5443C45.2569 51.5099 40.5292 48.693 36.747 44.6241C34.6983 42.2767 32.9648 39.6162 31.5465 36.7993C30.9161 35.3909 30.2857 34.1389 29.813 32.7304C29.3402 31.4785 30.1281 30.2265 30.9161 29.2875C31.7041 28.3486 32.6496 27.7226 33.7527 27.2531C34.5407 26.7836 35.3287 27.0966 35.959 27.7226C37.2198 29.2875 38.4805 30.8525 39.426 32.5739C40.0564 33.6694 39.8988 34.9214 38.7957 35.7039C38.4805 35.8603 38.3229 36.0168 38.0077 36.3298C37.8501 36.4863 37.5349 36.6428 37.3773 36.9558C37.0622 37.4253 37.0622 37.8948 37.2198 38.3643C38.4805 41.9637 40.8444 44.7806 44.469 46.3455C45.0993 46.6585 45.5721 46.815 46.3601 46.815C47.4632 46.6585 47.936 45.4066 48.724 44.7806C49.5119 44.1546 50.4575 44.1546 51.403 44.6241C52.191 45.0936 52.9789 45.7196 53.9245 46.3455C54.7124 46.9715 55.5004 47.441 56.2883 48.067C56.7611 48.38 56.9187 49.1625 56.6035 49.9449ZM49.9847 38.2078C49.6695 38.2078 49.8271 38.2078 49.9847 38.2078C49.3543 38.2078 49.1967 37.8948 49.0391 37.4253C49.0391 37.1123 49.0391 36.6428 48.8815 36.3298C48.724 35.7039 48.4088 35.0779 47.7784 34.6084C47.4632 34.4519 47.148 34.2954 46.8328 34.1389C46.3601 33.9824 46.0449 33.9824 45.5721 33.9824C45.0993 33.8259 44.9418 33.5129 44.9418 33.0434C44.9418 32.7304 45.4145 32.4175 45.7297 32.4175C48.2512 32.5739 50.1423 33.9824 50.4575 36.9558C50.4575 37.1123 50.4575 37.4253 50.4575 37.5818C50.4575 37.8948 50.2999 38.2078 49.9847 38.2078ZM48.4088 31.322C47.6208 31.009 46.8329 30.696 45.8873 30.5395C45.5721 30.5395 45.0993 30.383 44.7842 30.383C44.3114 30.383 43.9962 30.07 44.1538 29.6005C44.1538 29.1311 44.469 28.8181 44.9418 28.9746C46.5177 29.1311 47.936 29.444 49.3543 30.07C52.191 31.4785 53.7669 33.8259 54.2397 36.9558C54.2397 37.1123 54.2397 37.2688 54.2397 37.4253C54.2397 37.7383 54.2397 38.0513 54.2397 38.5208C54.2397 38.6773 54.2397 38.8338 54.2397 38.9903C54.0821 39.6162 52.9789 39.7727 52.8213 38.9903C52.8213 38.8338 52.6637 38.5208 52.6637 38.3643C52.6637 36.9558 52.3486 35.5474 51.7182 34.2954C50.7726 32.8869 49.6695 31.948 48.4088 31.322ZM56.9187 40.7117C56.4459 40.7117 56.1308 40.2422 56.1308 39.7727C56.1308 38.8338 55.9732 37.8948 55.8156 36.9558C55.1852 31.948 51.0878 27.8791 46.2025 27.0966C45.4145 26.9401 44.6266 26.9401 43.9962 26.7836C43.5234 26.7836 42.8931 26.7836 42.7355 26.1576C42.5779 25.6882 43.0507 25.2187 43.5234 25.2187C43.681 25.2187 43.8386 25.2187 43.8386 25.2187C44.1538 25.2187 50.2999 25.3752 43.8386 25.2187C50.4575 25.3752 55.9732 29.757 57.0763 36.3298C57.2339 37.4253 57.3915 38.5208 57.3915 39.7727C57.7067 40.2422 57.3915 40.7117 56.9187 40.7117Z" fill="white"/>
</svg>
