<svg width="86" height="86" viewBox="0 0 86 86" fill="none" xmlns="http://www.w3.org/2000/svg">
<rect width="86" height="86" fill="#48C95F"/>
<path d="M60.0427 25.9345C55.7951 21.7017 50.1317 19.3501 44.1537 19.3501C31.7256 19.3501 21.6573 29.3834 21.6573 41.7683C21.6573 45.6876 22.7585 49.6069 24.6463 52.8991L21.5 64.5001L33.4561 61.3647C36.7598 63.0892 40.378 64.0298 44.1537 64.0298C56.5817 64.0298 66.65 53.9965 66.65 41.6116C66.4927 35.811 64.2902 30.1673 60.0427 25.9345ZM55.0085 49.7636C54.5366 51.0178 52.3341 52.272 51.2329 52.4287C50.289 52.5855 49.0305 52.5855 47.772 52.272C46.9854 51.9584 45.8841 51.6449 44.6256 51.0178C38.9622 48.6662 35.3439 43.0225 35.0293 42.5522C34.7146 42.2386 32.6695 39.5735 32.6695 36.7517C32.6695 33.9298 34.0854 32.6756 34.5573 32.0485C35.0293 31.4214 35.6585 31.4215 36.1305 31.4215C36.4451 31.4215 36.9171 31.4215 37.2317 31.4215C37.5463 31.4215 38.0183 31.2647 38.4902 32.3621C38.9622 33.4595 40.0634 36.2813 40.2207 36.4381C40.378 36.7517 40.378 37.0652 40.2207 37.3787C40.0634 37.6923 39.9061 38.0058 39.5915 38.3194C39.2768 38.6329 38.9622 39.1032 38.8049 39.26C38.4902 39.5735 38.1756 39.8871 38.4902 40.3574C38.8049 40.9845 39.9061 42.7089 41.6366 44.2767C43.839 46.1579 45.5695 46.785 46.1988 47.0985C46.8281 47.4121 47.1427 47.2553 47.4573 46.9418C47.7719 46.6282 48.8732 45.3741 49.1878 44.747C49.5024 44.1199 49.9744 44.2767 50.4463 44.4334C50.9183 44.5902 53.75 46.0011 54.222 46.3147C54.8512 46.6282 55.1658 46.785 55.3232 46.9418C55.4805 47.4121 55.4805 48.5095 55.0085 49.7636Z" fill="white"/>
</svg>
