<svg width="24" height="24" viewBox="0 0 24 24" fill="none" xmlns="http://www.w3.org/2000/svg">
<path d="M19.7078 6.29184C19.8009 6.38473 19.8748 6.49508 19.9252 6.61657C19.9756 6.73806 20.0016 6.8683 20.0016 6.99984C20.0016 7.13137 19.9756 7.26162 19.9252 7.38311C19.8748 7.5046 19.8009 7.61495 19.7078 7.70784L10.7078 16.7079C10.6149 16.801 10.5046 16.8749 10.3831 16.9253C10.2616 16.9757 10.1313 17.0017 9.99979 17.0017C9.86825 17.0017 9.73802 16.9757 9.61653 16.9253C9.49504 16.8749 9.38468 16.801 9.29179 16.7079L5.2918 12.7079C5.10402 12.5201 4.99854 12.2654 4.99854 11.9999C4.99854 11.7343 5.10402 11.4797 5.2918 11.2919C5.47957 11.1041 5.73425 10.9986 5.9998 10.9986C6.26535 10.9986 6.52003 11.1041 6.7078 11.2919L9.99979 14.5859L18.2918 6.29184C18.3847 6.19871 18.495 6.12483 18.6165 6.07441C18.738 6.024 18.8683 5.99805 18.9998 5.99805C19.1313 5.99805 19.2616 6.024 19.3831 6.07441C19.5046 6.12483 19.6149 6.19871 19.7078 6.29184Z" fill="white"/>
</svg>
