<svg width="116" height="150" viewBox="0 0 116 150" fill="none" xmlns="http://www.w3.org/2000/svg">
<path fill-rule="evenodd" clip-rule="evenodd" d="M100.076 13.1231C92.1216 7.37145 80.9937 9.16588 75.2403 17.1229L12.7322 103.574C12.7317 103.575 12.7312 103.576 12.7307 103.576C5.22844 113.994 7.53872 128.507 17.9524 136.036C28.3711 143.541 42.8873 141.23 50.4163 130.813L78.0587 92.573L81.3004 94.9164L53.6582 133.156C53.6581 133.156 53.6582 133.156 53.6582 133.156C44.8304 145.37 27.8151 148.07 15.6145 139.282L15.6119 139.28C3.39843 130.452 0.698256 113.437 9.48654 101.236L9.48864 101.233L71.9988 14.7791C79.0449 5.03437 92.6727 2.83387 102.42 9.88171C112.165 16.9278 114.365 30.5556 107.317 40.3028L59.4381 106.517C54.1162 113.873 43.8648 115.499 36.5464 110.204C29.1898 104.882 27.5643 94.6312 32.8591 87.3128L64.4813 43.5492L67.7235 45.8919L36.1006 89.6565L36.0999 89.6575C32.0994 95.1869 33.3252 102.937 38.8909 106.963C44.4204 110.964 52.1706 109.738 56.197 104.172L104.076 37.959C109.828 30.0044 108.033 18.8766 100.076 13.1231Z" fill="#B06574"/>
</svg>
