<svg width="310" height="240" viewBox="0 0 310 240" fill="none" xmlns="http://www.w3.org/2000/svg">
<rect width="310" height="240" fill="#C4C4C4"/>
<path d="M123.311 86.8736C123.311 92.3947 121.463 97.0876 117.765 100.952C114.068 104.817 109.579 106.749 104.298 106.749C99.0162 106.749 94.5269 104.817 90.8299 100.952C87.1329 97.0876 85.2844 92.3947 85.2844 86.8736C85.2844 81.3526 87.1329 76.6597 90.8299 72.795C94.5269 68.9302 99.0162 66.9979 104.298 66.9979C109.579 66.9979 114.068 68.9302 117.765 72.795C121.463 76.6597 123.311 81.3526 123.311 86.8736ZM224.716 126.625V173.002H85.2844V153.126L116.973 120L132.818 136.563L183.52 83.561L224.716 126.625ZM234.222 53.7473H75.7777C74.9194 53.7473 74.1767 54.0752 73.5496 54.7308C72.9224 55.3864 72.6088 56.1628 72.6088 57.06V182.94C72.6088 183.837 72.9224 184.613 73.5496 185.269C74.1767 185.925 74.9194 186.252 75.7777 186.252H234.222C235.08 186.252 235.823 185.925 236.45 185.269C237.078 184.613 237.391 183.837 237.391 182.94V57.06C237.391 56.1628 237.078 55.3864 236.45 54.7308C235.823 54.0752 235.08 53.7473 234.222 53.7473ZM250.067 57.06V182.94C250.067 187.495 248.515 191.394 245.412 194.638C242.309 197.881 238.579 199.503 234.222 199.503H75.7777C71.4205 199.503 67.6904 197.881 64.5875 194.638C61.4847 191.394 59.9332 187.495 59.9332 182.94V57.06C59.9332 52.5051 61.4847 48.6059 64.5875 45.3622C67.6904 42.1186 71.4205 40.4968 75.7777 40.4968H234.222C238.579 40.4968 242.309 42.1186 245.412 45.3622C248.515 48.6059 250.067 52.5051 250.067 57.06Z" fill="#F5F5F5"/>
</svg>
